<svg width="20" height="21" viewBox="0 0 20 21" fill="none" xmlns="http://www.w3.org/2000/svg">
<path d="M5.27539 15.2334C5.27539 15.6863 5.64844 16.0559 6.10742 16.0559H7.05859V18.3858C7.05859 18.976 7.53711 19.4579 8.125 19.4579C8.71484 19.4579 9.19141 18.978 9.19141 18.3858V16.0539H10.8516V18.3839C10.8516 18.9741 11.3301 19.456 11.918 19.456C12.5078 19.456 12.9844 18.976 12.9844 18.3839V16.0539H13.9355C14.3945 16.0539 14.7676 15.6843 14.7676 15.2315V7.58372H5.27539V15.2334ZM12.25 3.6205L13.127 2.36264C13.1777 2.28911 13.166 2.19041 13.0977 2.14204C13.0293 2.09559 12.9316 2.11881 12.8809 2.19235L11.9707 3.50052C11.3711 3.26637 10.7031 3.13671 10.002 3.13671C9.30078 3.13671 8.63281 3.26637 8.0332 3.50052L7.12305 2.19429C7.07227 2.12075 6.97461 2.09559 6.90625 2.14397C6.83789 2.19041 6.82617 2.28717 6.87695 2.36458L7.75391 3.62244C6.35938 4.26491 5.38281 5.48213 5.25781 6.90448H14.75C14.6211 5.4802 13.6426 4.26298 12.25 3.6205ZM7.99805 5.60405C7.89413 5.60405 7.79256 5.57352 7.70616 5.51632C7.61976 5.45912 7.55242 5.37782 7.51265 5.2827C7.47288 5.18758 7.46248 5.08291 7.48275 4.98193C7.50302 4.88095 7.55306 4.7882 7.62654 4.7154C7.70002 4.6426 7.79363 4.59302 7.89555 4.57293C7.99746 4.55285 8.1031 4.56315 8.19911 4.60255C8.29511 4.64195 8.37716 4.70868 8.43489 4.79428C8.49262 4.87989 8.52344 4.98053 8.52344 5.08349C8.52308 5.22144 8.46761 5.35364 8.36916 5.45118C8.2707 5.54873 8.13728 5.60369 7.99805 5.60405ZM12.0684 5.60405C11.9644 5.60405 11.8629 5.57352 11.7765 5.51632C11.6901 5.45912 11.6227 5.37782 11.583 5.2827C11.5432 5.18758 11.5328 5.08291 11.5531 4.98193C11.5733 4.88095 11.6234 4.7882 11.6969 4.7154C11.7703 4.6426 11.8639 4.59302 11.9659 4.57293C12.0678 4.55285 12.1734 4.56315 12.2694 4.60255C12.3654 4.64195 12.4475 4.70868 12.5052 4.79428C12.5629 4.87989 12.5938 4.98053 12.5938 5.08349C12.5934 5.22144 12.5379 5.35364 12.4395 5.45118C12.341 5.54873 12.2076 5.60369 12.0684 5.60405ZM16.4316 7.55276C15.8418 7.55276 15.3652 8.03268 15.3652 8.62484V12.8125C15.3652 13.4028 15.8438 13.8846 16.4316 13.8846C17.0215 13.8846 17.498 13.4047 17.498 12.8125V8.62291C17.5 8.03075 17.0234 7.55276 16.4316 7.55276ZM3.56836 7.55276C2.97852 7.55276 2.50195 8.03268 2.50195 8.62484V12.8125C2.50195 13.4028 2.98047 13.8846 3.56836 13.8846C4.1582 13.8846 4.63477 13.4047 4.63477 12.8125V8.62291C4.63477 8.03075 4.15625 7.55276 3.56836 7.55276Z" fill="white"/>
</svg>
