<svg width="10" height="6" viewBox="0 0 10 6" fill="none" xmlns="http://www.w3.org/2000/svg">
<path d="M1.06071 0.146447C0.865445 -0.0488155 0.548862 -0.0488155 0.3536 0.146447C0.158338 0.341709 0.158338 0.658291 0.3536 0.853553L4.64064 5.14059C4.64254 5.14256 4.64446 5.14451 4.6464 5.14645C4.74404 5.24409 4.87202 5.29291 5 5.29289C5.12798 5.29291 5.25596 5.24409 5.3536 5.14645C5.35554 5.14451 5.35746 5.14256 5.35936 5.14059L9.6464 0.853553C9.84166 0.658291 9.84166 0.341709 9.6464 0.146447C9.45114 -0.0488155 9.13456 -0.0488155 8.93929 0.146447L5 4.08574L1.06071 0.146447Z" fill="white"/>
</svg>
