<svg width="16" height="17" viewBox="0 0 16 17" fill="none" xmlns="http://www.w3.org/2000/svg">
<g clip-path="url(#clip0_232_2415)">
<path d="M2.9215 0.862183C1.30312 0.862183 0 2.15332 0 3.75682V13.8204C0 15.4239 1.30312 16.7151 2.9215 16.7151H8.42651V10.5176H6.77251V8.28629H8.42651V6.37998C8.42651 4.88228 9.40378 3.50714 11.655 3.50714C12.5665 3.50714 13.2405 3.59384 13.2405 3.59384L13.1875 5.67751C13.1875 5.67751 12.5001 5.67108 11.75 5.67108C10.9382 5.67108 10.808 6.04168 10.808 6.65693V8.28631H13.252L13.1455 10.5176H10.808V16.7151H13.0785C14.6969 16.7151 16 15.424 16 13.8205V3.75684C16 2.15334 14.6969 0.862198 13.0785 0.862198H2.92149L2.9215 0.862183Z" fill="white"/>
</g>
<defs>
<clipPath id="clip0_232_2415">
<rect width="16" height="15.8529" fill="white" transform="translate(0 0.862183)"/>
</clipPath>
</defs>
</svg>
