<svg width="20" height="21" viewBox="0 0 20 21" fill="none" xmlns="http://www.w3.org/2000/svg">
<g clip-path="url(#clip0_232_2404)">
<path d="M0.916667 5.87549C0.405 5.87549 1.32341e-08 6.27181 1.32341e-08 6.76721C-2.0497e-05 6.88572 0.0237993 7.00304 0.0700671 7.11232C0.116335 7.2216 0.184123 7.32064 0.269469 7.40367C0.354815 7.48669 0.456007 7.55203 0.567131 7.59586C0.678255 7.63969 0.797082 7.66113 0.916667 7.65894C1.43333 7.65894 1.84167 7.26262 1.84167 6.76721C1.84167 6.27181 1.43333 5.87549 0.916667 5.87549ZM7.25833 5.892C4.45833 5.892 2.70833 7.78279 2.70833 10.7882C2.70833 13.8184 4.45833 15.701 7.25833 15.701C10.0417 15.701 11.8 13.8184 11.8 10.7882C11.8 7.78279 10.0417 5.892 7.25833 5.892ZM16.2917 5.892C14.2083 5.892 12.725 7.03143 12.725 8.72405C12.725 10.0699 13.5667 10.9121 15.3333 11.3167L16.575 11.6139C17.7833 11.8864 18.275 12.2827 18.275 12.968C18.275 13.7606 17.4667 14.3221 16.3167 14.3221C15.1417 14.3221 14.2583 13.7524 14.1667 12.8772H12.5C12.5667 14.6276 14.0167 15.701 16.2167 15.701C18.5417 15.701 20 14.5698 20 12.7698C20 11.3579 19.1667 10.557 17.2333 10.1194L16.125 9.87174C14.95 9.59101 14.4667 9.21946 14.4667 8.59195C14.4667 7.7993 15.2 7.27087 16.2833 7.27087C17.375 7.27087 18.125 7.80756 18.2083 8.69103H19.8417C19.8 7.02317 18.4083 5.892 16.2917 5.892ZM7.25833 7.33693C8.95833 7.33693 10.05 8.68277 10.05 10.7882C10.05 12.9102 8.95833 14.256 7.25833 14.256C5.54167 14.256 4.45833 12.9102 4.45833 10.7882C4.45833 8.68277 5.54167 7.33693 7.25833 7.33693ZM0.0925 8.56718V15.5441H1.75V8.56718H0.0916667H0.0925Z" fill="white"/>
</g>
<defs>
<clipPath id="clip0_232_2404">
<rect width="20" height="19.8161" fill="white" transform="translate(0 0.880371)"/>
</clipPath>
</defs>
</svg>
