<svg width="18" height="21" viewBox="0 0 18 21" fill="none" xmlns="http://www.w3.org/2000/svg">
<path opacity="0.7" fill-rule="evenodd" clip-rule="evenodd" d="M3.25 5.75C3.25 2.57436 5.82436 0 9 0C12.1756 0 14.75 2.57436 14.75 5.75V6.86372C14.75 6.93052 14.7413 6.99529 14.7249 7.05693C16.161 7.58463 17.2803 8.74318 17.7553 10.2049C18 10.9581 18 11.8887 18 13.75C18 15.6113 18 16.5419 17.7553 17.2951C17.2607 18.8173 16.0673 20.0107 14.5451 20.5053C13.7919 20.75 12.8613 20.75 11 20.75H6.99998C5.13871 20.75 4.20808 20.75 3.45492 20.5053C1.93273 20.0107 0.739307 18.8173 0.244717 17.2951C0 16.5419 0 15.6113 0 13.75C0 11.8887 0 10.9581 0.244717 10.2049C0.719664 8.74318 1.83903 7.58463 3.27512 7.05693C3.25873 6.99529 3.25 6.93052 3.25 6.86372V5.75ZM4.75 6.78413C5.31973 6.75 6.03471 6.75 7 6.75H11C11.9653 6.75 12.6803 6.75 13.25 6.78413V5.75C13.25 3.40279 11.3472 1.5 9 1.5C6.65279 1.5 4.75 3.40279 4.75 5.75V6.78413ZM9 11C9.41421 11 9.75 11.3358 9.75 11.75V15.75C9.75 16.1642 9.41421 16.5 9 16.5C8.58579 16.5 8.25 16.1642 8.25 15.75V11.75C8.25 11.3358 8.58579 11 9 11Z" fill="white"/>
</svg>
