<svg width="65" height="65" viewBox="0 0 65 65" fill="none" xmlns="http://www.w3.org/2000/svg">
<g filter="url(#filter0_d_232_1970)">
<path d="M53 32.5C53 43.8218 43.8218 53 32.5 53C21.1782 53 12 43.8218 12 32.5C12 21.1782 21.1782 12 32.5 12C43.8218 12 53 21.1782 53 32.5Z" fill="white" fill-opacity="0.32" shape-rendering="crispEdges"/>
<path d="M52 32.5C52 43.2696 43.2696 52 32.5 52C21.7304 52 13 43.2696 13 32.5C13 21.7304 21.7304 13 32.5 13C43.2696 13 52 21.7304 52 32.5Z" stroke="white" stroke-width="2" shape-rendering="crispEdges"/>
</g>
<g filter="url(#filter1_d_232_1970)">
<path fill-rule="evenodd" clip-rule="evenodd" d="M32.5 59.7875C47.5705 59.7875 59.7875 47.5705 59.7875 32.5C59.7875 17.4295 47.5705 5.2125 32.5 5.2125C17.4295 5.2125 5.2125 17.4295 5.2125 32.5C5.2125 47.5705 17.4295 59.7875 32.5 59.7875ZM32.5 62C48.7924 62 62 48.7924 62 32.5C62 16.2076 48.7924 3 32.5 3C16.2076 3 3 16.2076 3 32.5C3 48.7924 16.2076 62 32.5 62Z" fill="white"/>
</g>
<path d="M39.5808 33.2723L29.4059 39.8541C28.982 40.1283 28.4174 40.0048 28.1449 39.5782C28.0503 39.4301 28 39.2578 28 39.0817V25.9182C28 25.4111 28.4085 25 28.9125 25C29.0875 25 29.2587 25.0506 29.4059 25.1458L39.5808 31.7276C40.0048 32.0018 40.1275 32.5699 39.855 32.9965C39.7843 33.1071 39.6908 33.2012 39.5808 33.2723Z" fill="white"/>
<defs>
<filter id="filter0_d_232_1970" x="7" y="7" width="51" height="51" filterUnits="userSpaceOnUse" color-interpolation-filters="sRGB">
<feFlood flood-opacity="0" result="BackgroundImageFix"/>
<feColorMatrix in="SourceAlpha" type="matrix" values="0 0 0 0 0 0 0 0 0 0 0 0 0 0 0 0 0 0 127 0" result="hardAlpha"/>
<feOffset/>
<feGaussianBlur stdDeviation="2.5"/>
<feComposite in2="hardAlpha" operator="out"/>
<feColorMatrix type="matrix" values="0 0 0 0 1 0 0 0 0 1 0 0 0 0 1 0 0 0 0.51 0"/>
<feBlend mode="normal" in2="BackgroundImageFix" result="effect1_dropShadow_232_1970"/>
<feBlend mode="normal" in="SourceGraphic" in2="effect1_dropShadow_232_1970" result="shape"/>
</filter>
<filter id="filter1_d_232_1970" x="0" y="0" width="65" height="65" filterUnits="userSpaceOnUse" color-interpolation-filters="sRGB">
<feFlood flood-opacity="0" result="BackgroundImageFix"/>
<feColorMatrix in="SourceAlpha" type="matrix" values="0 0 0 0 0 0 0 0 0 0 0 0 0 0 0 0 0 0 127 0" result="hardAlpha"/>
<feOffset/>
<feGaussianBlur stdDeviation="1.5"/>
<feComposite in2="hardAlpha" operator="out"/>
<feColorMatrix type="matrix" values="0 0 0 0 1 0 0 0 0 1 0 0 0 0 1 0 0 0 0.66 0"/>
<feBlend mode="normal" in2="BackgroundImageFix" result="effect1_dropShadow_232_1970"/>
<feBlend mode="normal" in="SourceGraphic" in2="effect1_dropShadow_232_1970" result="shape"/>
</filter>
</defs>
</svg>
