<svg width="16" height="55" viewBox="0 0 16 55" fill="none" xmlns="http://www.w3.org/2000/svg">
<path d="M8 4.45862C8.19891 4.45862 8.38968 4.53691 8.53033 4.67627C8.67098 4.81563 8.75 5.00464 8.75 5.20173V8.17414C8.75 8.37123 8.67098 8.56024 8.53033 8.6996C8.38968 8.83896 8.19891 8.91725 8 8.91725C7.80109 8.91725 7.61032 8.83896 7.46967 8.6996C7.32902 8.56024 7.25 8.37123 7.25 8.17414V5.20173C7.25 5.00464 7.32902 4.81563 7.46967 4.67627C7.61032 4.53691 7.80109 4.45862 8 4.45862ZM14 16.3483C14 17.925 13.3679 19.437 12.2426 20.5519C11.1174 21.6668 9.5913 22.2931 8 22.2931C6.4087 22.2931 4.88258 21.6668 3.75736 20.5519C2.63214 19.437 2 17.925 2 16.3483V7.43104C2 5.85437 2.63214 4.34228 3.75736 3.22741C4.88258 2.11254 6.4087 1.48621 8 1.48621C9.5913 1.48621 11.1174 2.11254 12.2426 3.22741C13.3679 4.34228 14 5.85437 14 7.43104V16.3483ZM8 0C6.01088 0 4.10322 0.782911 2.6967 2.1765C1.29018 3.57009 0.5 5.46021 0.5 7.43104V16.3483C0.5 18.3191 1.29018 20.2092 2.6967 21.6028C4.10322 22.9964 6.01088 23.7793 8 23.7793C9.98912 23.7793 11.8968 22.9964 13.3033 21.6028C14.7098 20.2092 15.5 18.3191 15.5 16.3483V7.43104C15.5 5.46021 14.7098 3.57009 13.3033 2.1765C11.8968 0.782911 9.98912 0 8 0V0Z" fill="white"/>
<path d="M8.53 37.1954C8.2371 37.4856 7.76223 37.4856 7.46934 37.1954L1.45893 31.2402C1.16603 30.95 1.16603 30.4795 1.45893 30.1893C1.75182 29.8991 2.22669 29.8991 2.51959 30.1893L7.99967 35.619L13.4797 30.1893C13.7726 29.8991 14.2475 29.8991 14.5404 30.1893C14.8333 30.4795 14.8333 30.95 14.5404 31.2402L8.53 37.1954Z" fill="white"/>
<path opacity="0.5" d="M8.53 45.8653C8.2371 46.1555 7.76223 46.1555 7.46934 45.8653L1.45893 39.9102C1.16603 39.62 1.16603 39.1495 1.45893 38.8593C1.75182 38.5691 2.22669 38.5691 2.51959 38.8593L7.99967 44.2889L13.4797 38.8593C13.7726 38.5691 14.2475 38.5691 14.5404 38.8593C14.8333 39.1495 14.8333 39.62 14.5404 39.9102L8.53 45.8653Z" fill="white"/>
<path opacity="0.1" d="M8.53 54.7823C8.2371 55.0725 7.76223 55.0725 7.46934 54.7823L1.45893 48.8272C1.16603 48.537 1.16603 48.0664 1.45893 47.7762C1.75182 47.486 2.22669 47.486 2.51959 47.7762L7.99967 53.2059L13.4797 47.7762C13.7726 47.486 14.2475 47.486 14.5404 47.7762C14.8333 48.0664 14.8333 48.537 14.5404 48.8272L8.53 54.7823Z" fill="white"/>
</svg>
