<svg id="Слой_1" data-name="Слой 1" xmlns="http://www.w3.org/2000/svg" viewBox="0 0 989.13 87.81"><title>second-world2</title><path d="M56.67,28.07l-1,.15.13.85h.86Zm-4.14-6-.54.85h0ZM36.19,21.2l-.43-.9h0Zm.36,8.52-.4.92Zm9.7,3.08-.25,1h0ZM54,34.7l.24-1h0Zm9.58,2.84-.32.94h0Zm8,4-.6.8ZM77,48.31l-.9.43h0Zm2.25,10.53h1v0h0Zm-3,12.67-.87-.5h0Zm-7.58,8.28.56.83h0ZM58,84.53l.23,1h0Zm-24,.11-.21,1h0ZM22.7,79.91l-.55.84h0ZM13.82,70.8l-.85.52h0ZM9.44,56.71v-1H8.34l.11,1.1Zm21.54,0,1-.23-.18-.77H31Zm5.57,7.22-.44.9h0Zm14.08,1.9.13,1ZM54.06,65l.36.93h0Zm2.61-1.9-.74-.67,0,0,0,0ZM55.48,56l-.55.83,0,0,0,0Zm-6.15-2.13-.21,1h0ZM42.7,52.45l.21-1h0ZM30,49l.32-1Zm-9.59-4.74-.6.8h0Zm-6.16-7.45-.89.44ZM12.05,25.11l-1-.07v.07ZM15.6,13.27l.84.55Zm7.69-7.69-.54-.84h0ZM34.18,1.2,34,.22h0ZM46.37.13l0-1h0Zm10.3,1.66-.3,1h0Zm9,4.14-.57.82h0Zm7.93,9-.88.47h0Zm3.79,13.14v1H78.5L78.38,28Zm-19.72-.15A9.21,9.21,0,0,0,53,21.17l-1,1.72a7.19,7.19,0,0,1,3.67,5.33Zm-4.6-6.73a18.18,18.18,0,0,0-9.88-2.41v2A16.25,16.25,0,0,1,52,22.88Zm-9.88-2.41a17,17,0,0,0-7.42,1.52l.86,1.8a15.19,15.19,0,0,1,6.56-1.32ZM35.76,20.3a6.56,6.56,0,0,0-2.61,2.11,5.23,5.23,0,0,0-.92,3.05h2a3.29,3.29,0,0,1,.56-1.91,4.59,4.59,0,0,1,1.83-1.45Zm-3.53,5.16a5,5,0,0,0,1,3.1,7.06,7.06,0,0,0,2.88,2.08l.79-1.83a5.24,5.24,0,0,1-2.09-1.47,3,3,0,0,1-.62-1.88Zm3.92,5.18A72.53,72.53,0,0,0,46,33.77l.5-1.94a72.55,72.55,0,0,1-9.56-3ZM46,33.77l7.7,1.9.48-2-7.7-1.89Zm7.69,1.89q5.05,1.31,9.51,2.82l.65-1.89Q59.32,35,54.19,33.73Zm9.54,2.83A24.75,24.75,0,0,1,71,42.36l1.21-1.6a27,27,0,0,0-8.36-4.18ZM71,42.36a17.41,17.41,0,0,1,5.15,6.38l1.8-.87a19.52,19.52,0,0,0-5.74-7.11Zm5.15,6.39a24.86,24.86,0,0,1,2.15,10.13l2-.07a26.87,26.87,0,0,0-2.36-11Zm2.15,10.09A24.26,24.26,0,0,1,75.45,71l1.74,1a26.33,26.33,0,0,0,3.09-13.16ZM75.44,71A22.8,22.8,0,0,1,68.18,79l1.12,1.66A24.88,24.88,0,0,0,77.19,72ZM68.18,79a33.09,33.09,0,0,1-10.46,4.6l.5,1.94A35.4,35.4,0,0,0,69.3,80.62ZM57.74,83.55A50.52,50.52,0,0,1,45.9,85v2A52.78,52.78,0,0,0,58.2,85.5ZM45.9,85a55.9,55.9,0,0,1-11.75-1.28l-.42,2A57.77,57.77,0,0,0,45.9,87ZM34.16,83.67a33.11,33.11,0,0,1-10.92-4.6l-1.08,1.68a35,35,0,0,0,11.57,4.87ZM23.25,79.08a29.71,29.71,0,0,1-8.59-8.83L13,71.34a31.82,31.82,0,0,0,9.17,9.41Zm-8.58-8.81a31.92,31.92,0,0,1-4.23-13.66l-2,.2A33.89,33.89,0,0,0,13,71.32ZM9.44,57.71H31v-2H9.44ZM30,56.94a11.11,11.11,0,0,0,6.1,7.89L37,63a9.11,9.11,0,0,1-5-6.55Zm6.11,7.9A25.12,25.12,0,0,0,47,67.06v-2a23.14,23.14,0,0,1-10-2ZM47,67.06a31.14,31.14,0,0,0,3.8-.24l-.25-2a27.44,27.44,0,0,1-3.55.23Zm3.8-.24a15.57,15.57,0,0,0,3.66-.89l-.71-1.87a13.77,13.77,0,0,1-3.2.77Zm3.7-.9a7.56,7.56,0,0,0,3-2.19l-1.56-1.25a5.57,5.57,0,0,1-2.22,1.6Zm2.95-2.15a5.56,5.56,0,0,0,1.32-3.86h-2a3.62,3.62,0,0,1-.8,2.52Zm1.32-3.86A5.23,5.23,0,0,0,56,55.14l-1,1.73a3.24,3.24,0,0,1,1.75,3ZM56,55.17a17.15,17.15,0,0,0-6.54-2.28l-.34,2a15.59,15.59,0,0,1,5.77,2Zm-6.5-2.28-6.63-1.42-.42,2,6.63,1.42Zm-6.63-1.42a107.81,107.81,0,0,1-12.55-3.4L29.72,50A109.76,109.76,0,0,0,42.5,53.43Zm-12.55-3.4a33.76,33.76,0,0,1-9.31-4.59l-1.2,1.61A36,36,0,0,0,29.72,50Zm-9.31-4.58a20.11,20.11,0,0,1-5.86-7.11l-1.79.89a22,22,0,0,0,6.45,7.81Zm-5.86-7.11a24.66,24.66,0,0,1-2.14-11h-2A26.6,26.6,0,0,0,13.4,37.27Zm-2.14-11v-.24h-2v.24Zm0-.17a23.37,23.37,0,0,1,3.4-11.36l-1.68-1.09A25.24,25.24,0,0,0,11.05,25Zm3.4-11.36a24.49,24.49,0,0,1,7.39-7.4L22.75,4.74a26.59,26.59,0,0,0-8,8Zm7.39-7.4A29.89,29.89,0,0,1,34.36,2.18L34,.22A31.52,31.52,0,0,0,22.75,4.74ZM34.36,2.18a66.28,66.28,0,0,1,12-1.05v-2A67.63,67.63,0,0,0,34,.22Zm12-1.05a36.46,36.46,0,0,1,10,1.62L57,.84A38.56,38.56,0,0,0,46.39-.87Zm10,1.62a28.44,28.44,0,0,1,8.69,4l1.15-1.64A30.51,30.51,0,0,0,56.94.83Zm8.7,4a24,24,0,0,1,7.61,8.64l1.77-.94a26.09,26.09,0,0,0-8.25-9.35Zm7.62,8.65a34.3,34.3,0,0,1,3.67,12.76l2-.21a36.32,36.32,0,0,0-3.91-13.51Zm4.66,11.66H56.67v2H77.38ZM154.91,1.2h1V.2h-1Zm0,19.88v1h1v-1Zm-41.78,0v-1h-1v1Zm0,12.79h-1v1h1Zm34.45,0h1v-1h-1Zm0,18.94v1h1v-1Zm-34.45,0v-1h-1v1Zm0,12.42h-1v1h1Zm41.78,0h1v-1h-1Zm0,19.77v1h1V85Zm-63.2,0h-1v1h1Zm0-83.8V.2h-1v1Zm62.2,0V21.08h2V1.2Zm1,18.88H113.13v2h41.78Zm-42.78,1V33.87h2V21.08Zm1,13.79h34.45v-2H113.13Zm33.45-1V52.81h2V33.87Zm1,17.94H113.13v2h34.45Zm-35.45,1V65.23h2V52.81Zm1,13.42h41.78v-2H113.13Zm40.78-1V85h2V65.23Zm1,18.77H91.71v2h63.2Zm-62.2,1V1.2h-2V85Zm-1-82.8h63.2V.2H91.71Zm93,48.83-1,.25h0ZM188,58.37l-.82.56v0h0Zm6.16,5.32-.49.88h0Zm20.48-1.06.58.81Zm5.56-8.76v-1h-.8l-.18.78Zm20.71,0,1,.08.08-1.08H241Zm-3.9,14-.88-.48ZM228.52,77.9l-.61-.79h0Zm-11.71,6-.29-1h0ZM185.68,83l-.36.93h0Zm-13.14-8.52-.72.69h0ZM164.37,61l-.94.34h0Zm.12-35.74.94.35Zm8.4-13.5.72.7ZM186,3.21l.36.93h0Zm30.66-1.06-.3,1h0Zm11.36,6-.64.77h0Zm8,10-.89.45h0ZM240,32.33v1h1.09l-.1-1.09Zm-20.24,0-1,.24.18.76h.79Zm-5.45-8.76-.63.77h0Zm-20.24-1.18.45.89h0Zm-6.15,5.09-.81-.6h0Zm-3.32,7.22-1-.26h0v0Zm-2,8.16a33.75,33.75,0,0,0,1.1,8.42l1.94-.5a31.69,31.69,0,0,1-1-7.92Zm1.1,8.43a24.86,24.86,0,0,0,3.46,7.64l1.65-1.12a22.93,22.93,0,0,1-3.17-7ZM187.24,59a20.3,20.3,0,0,0,6.47,5.61l1-1.75a18.14,18.14,0,0,1-5.84-5Zm6.49,5.62a20.52,20.52,0,0,0,9.7,2.13v-2a18.43,18.43,0,0,1-8.76-1.9Zm9.7,2.13c4.8,0,8.77-1.06,11.83-3.27l-1.17-1.62c-2.62,1.89-6.14,2.89-10.66,2.89Zm11.83-3.27a15.27,15.27,0,0,0,6-9.35l-2-.44a13.29,13.29,0,0,1-5.17,8.17Zm5-8.57H241v-2H220.24ZM240,53.8a33,33,0,0,1-3.79,13.56l1.75,1A34.87,34.87,0,0,0,242,54Zm-3.79,13.56a31.08,31.08,0,0,1-8.26,9.75l1.23,1.58a33,33,0,0,0,8.78-10.37Zm-8.27,9.75A34.15,34.15,0,0,1,216.52,83l.58,1.91a35.86,35.86,0,0,0,12-6.21ZM216.51,83a44.87,44.87,0,0,1-13.32,2v2a46.88,46.88,0,0,0,13.91-2.06Zm-13.32,2A48,48,0,0,1,186,82.05l-.71,1.87a50.19,50.19,0,0,0,17.87,3ZM186,82.05a35.35,35.35,0,0,1-12.79-8.28l-1.43,1.4a37.47,37.47,0,0,0,13.5,8.75Zm-12.78-8.28a36.52,36.52,0,0,1-7.95-13.13l-1.88.67a38.5,38.5,0,0,0,8.39,13.85Zm-7.95-13.13A52.82,52.82,0,0,1,162.53,43h-2a54.77,54.77,0,0,0,2.9,18.33ZM162.53,43a49.34,49.34,0,0,1,2.9-17.4l-1.88-.7a51.45,51.45,0,0,0-3,18.1Zm2.9-17.4a36.93,36.93,0,0,1,8.18-13.15L172.18,11a39,39,0,0,0-8.63,13.85Zm8.18-13.15a35.46,35.46,0,0,1,12.78-8.29l-.72-1.86A37.52,37.52,0,0,0,172.18,11ZM186.4,4.14a44.51,44.51,0,0,1,16.68-3v-2a46.6,46.6,0,0,0-17.42,3.15Zm16.68-3a44,44,0,0,1,13.31,2l.6-1.91A46.25,46.25,0,0,0,203.08-.87Zm13.31,2a31.72,31.72,0,0,1,11,5.85l1.28-1.54A33.84,33.84,0,0,0,217,1.19Zm11,5.87a28.31,28.31,0,0,1,7.78,9.61l1.78-.91A30.49,30.49,0,0,0,228.67,7.4Zm7.79,9.62A36,36,0,0,1,239,32.42l2-.18a37.74,37.74,0,0,0-4-14.58ZM240,31.33H219.77v2H240Zm-19.27.76a16.26,16.26,0,0,0-5.81-9.31l-1.22,1.58a14.34,14.34,0,0,1,5.09,8.21ZM215,22.8c-2.84-2.33-6.76-3.43-11.64-3.43v2c4.6,0,8,1,10.38,3Zm-11.64-3.43a20.52,20.52,0,0,0-9.7,2.13l.94,1.77a18.43,18.43,0,0,1,8.76-1.9Zm-9.68,2.12a18.08,18.08,0,0,0-6.51,5.39l1.61,1.19a16,16,0,0,1,5.8-4.79Zm-6.52,5.41a23.19,23.19,0,0,0-3.46,7.54l1.93.51a21.55,21.55,0,0,1,3.16-6.9Zm-3.47,7.57a36.38,36.38,0,0,0-1,8.39h2a34.26,34.26,0,0,1,.93-7.94ZM308.93,3.21l-.36.93h0Zm13.5,8.52-.71.71h0Zm8.76,13.38-.94.36h0Zm.11,35.15.94.36h0ZM322.55,74l.7.71h0Zm-13.62,8.88.37.93h0Zm-35.15,0-.36.93Zm-13.61-8.64-.72.7h0Zm-8.64-13.61-.94.35h0Zm.12-35.27-.93-.38h0Zm8.87-13.5.7.72Zm13.62-8.64-.37-.93h0Zm-2.49,48.06-1,.27v0h0Zm3.91,7.34-.79.61h0Zm6.62,5.2-.44.9h0Zm19.18-.12.47.89h0Zm6.39-5.32.79.61h0Zm3.55-7.22-1-.28h0Zm.12-15.63-1,.25h0Zm-3.55-7.45.8-.6h0Zm-6.51-5.45-.5.87h0ZM282,22.39l-.44-.9h0Zm-6.63,5.2-.78-.63h0Zm-3.67,7.22-1-.28Zm20-33.68a45.79,45.79,0,0,1,16.92,3l.73-1.86A47.82,47.82,0,0,0,291.65-.87Zm16.93,3a36,36,0,0,1,13.14,8.29L323.13,11a38.1,38.1,0,0,0-13.85-8.76Zm13.16,8.31a35.51,35.51,0,0,1,8.51,13l1.87-.72a37.51,37.51,0,0,0-9-13.74Zm8.52,13a44.79,44.79,0,0,1,3.12,17.14h2a46.82,46.82,0,0,0-3.27-17.9Zm3.12,17.14a48.09,48.09,0,0,1-3,17.28l1.87.71a50,50,0,0,0,3.14-18Zm-3,17.27a38.91,38.91,0,0,1-8.54,13.39l1.43,1.4a41.09,41.09,0,0,0,9-14.07Zm-8.53,13.39a39.36,39.36,0,0,1-13.28,8.65l.75,1.86a41.34,41.34,0,0,0,13.94-9.1Zm-13.27,8.65a46.13,46.13,0,0,1-17,3v2A48.2,48.2,0,0,0,309.3,83.8Zm-17,3a47.77,47.77,0,0,1-17.39-3l-.72,1.86A49.77,49.77,0,0,0,291.53,87Zm-17.39-3a38.72,38.72,0,0,1-13.27-8.43l-1.4,1.43a40.72,40.72,0,0,0,13.95,8.86Zm-13.26-8.41a38.84,38.84,0,0,1-8.42-13.27L250.6,61a40.65,40.65,0,0,0,8.85,14Zm-8.41-13.26A49,49,0,0,1,249.57,43h-2a51.18,51.18,0,0,0,3,18ZM249.57,43a47.38,47.38,0,0,1,3-17.27L250.71,25a49.44,49.44,0,0,0-3.14,18Zm3-17.26a38.08,38.08,0,0,1,8.65-13.15l-1.4-1.43A40.1,40.1,0,0,0,250.72,25Zm8.65-13.15A38.86,38.86,0,0,1,274.5,4.14l-.73-1.86a40.91,40.91,0,0,0-13.95,8.86ZM274.5,4.14a47,47,0,0,1,17.15-3v-2a49.1,49.1,0,0,0-17.88,3.15Zm-5,38.72a31.21,31.21,0,0,0,1.22,8.68l1.92-.55a29.56,29.56,0,0,1-1.14-8.13Zm1.23,8.71a24.3,24.3,0,0,0,4.07,7.65L276.34,58a22.56,22.56,0,0,1-3.74-7Zm4.08,7.67a20.83,20.83,0,0,0,7,5.47l.89-1.79a19,19,0,0,1-6.3-5Zm7,5.48a24.68,24.68,0,0,0,10.36,2v-2a22.79,22.79,0,0,1-9.53-1.81Zm10.36,2a20.54,20.54,0,0,0,9.7-2.13l-.94-1.77a18.43,18.43,0,0,1-8.76,1.9Zm9.71-2.14a21.26,21.26,0,0,0,6.7-5.59L307,57.75a19,19,0,0,1-6.08,5.07Zm6.71-5.6a22.42,22.42,0,0,0,3.72-7.56l-1.93-.52A20.47,20.47,0,0,1,307,57.77Zm3.71-7.54a29.17,29.17,0,0,0,1.22-8.21h-2a26.83,26.83,0,0,1-1.14,7.65Zm1.22-8.21a30.94,30.94,0,0,0-1.09-7.95l-1.94.51a29.11,29.11,0,0,1,1,7.44Zm-1.09-7.94a21.94,21.94,0,0,0-3.72-7.81l-1.6,1.2a20.09,20.09,0,0,1,3.38,7.1Zm-3.72-7.81a20.24,20.24,0,0,0-6.84-5.73l-.94,1.77a18.21,18.21,0,0,1,6.18,5.16Zm-6.81-5.71a19.91,19.91,0,0,0-10.09-2.39v2a18,18,0,0,1,9.09,2.12Zm-10.09-2.39a23.3,23.3,0,0,0-10.26,2.12l.87,1.8a21.19,21.19,0,0,1,9.39-1.92ZM281.5,21.49a20.93,20.93,0,0,0-7,5.47l1.55,1.27a18.81,18.81,0,0,1,6.3-4.95Zm-7,5.49a22.38,22.38,0,0,0-3.84,7.55l1.92.57a20.4,20.4,0,0,1,3.5-6.89Zm-3.84,7.55a29.57,29.57,0,0,0-1.22,8.33h2a27.46,27.46,0,0,1,1.14-7.76Zm95-33.33.8-.59-.3-.41h-.5Zm35.39,47.94-.8.59,1.8,2.44v-3Zm0-47.94V.2h-1v1Zm21.42,0h1V.2h-1Zm0,83.8v1h1V85Zm-19.41,0-.79.61.3.39h.49Zm-36-47.23.79-.6-1.79-2.36v3Zm0,47.23v1h1V85Zm-21.42,0h-1v1h1Zm0-83.8V.2h-1v1Zm19.19.59,35.4,47.94,1.6-1.19L366.46.61Zm37.2,47.35V1.2h-2V49.14Zm-1-46.94h21.42V.2H401.05Zm20.42-1V85h2V1.2Zm1,82.8H403.06v2h19.41Zm-18.61.39-36-47.22-1.59,1.21,36,47.23ZM366.08,37.77V85h2V37.77Zm1,46.23H345.66v2h21.42Zm-20.42,1V1.2h-2V85Zm-1-82.8h20V.2h-20ZM438.36,85h-1v1h1Zm0-83.8V.2h-1v1ZM489,3.92l-.33,1h0Zm13.61,7.81-.68.73Zm8.52,13-.93.36h0Zm-8.28,49.72-.68-.74h0ZM481.56,63.69l.36.94h0ZM488,59.2l-.76-.65h0Zm3.55-7,1,.26h0Zm0-17.75-1,.23h0v0Zm-3.43-7-.77.64Zm-6.75-4.62-.39.92h0Zm-21.54-1.78v-1h-1v1Zm0,44.15h-1v1h1ZM439.36,85V1.2h-2V85Zm-1-82.8h32.78V.2H438.36Zm32.78,0a53.65,53.65,0,0,1,17.55,2.67L489.34,3A55.77,55.77,0,0,0,471.14.2Zm17.57,2.67A34.73,34.73,0,0,1,502,12.46L503.31,11a36.75,36.75,0,0,0-14-8ZM502,12.46a33.2,33.2,0,0,1,8.27,12.65l1.87-.71A35.16,35.16,0,0,0,503.31,11Zm8.27,12.66a48.15,48.15,0,0,1,3,17.74h2a50.07,50.07,0,0,0-3.15-18.47Zm3,17.74c0,13.87-3.74,24.1-11,30.87l1.36,1.47c7.84-7.27,11.68-18.12,11.68-32.34ZM502.18,73.74C494.92,80.54,484.7,84,471.38,84v2c13.67,0,24.44-3.56,32.17-10.8ZM471.38,84h-33v2h33Zm.24-17.77a29.06,29.06,0,0,0,10.3-1.6l-.72-1.87a27,27,0,0,1-9.58,1.47Zm10.32-1.61a17.11,17.11,0,0,0,6.78-4.78l-1.54-1.28a15,15,0,0,1-6,4.21Zm6.78-4.78a18.81,18.81,0,0,0,3.75-7.37L490.54,52a16.87,16.87,0,0,1-3.35,6.59Zm3.75-7.38a37.15,37.15,0,0,0,1.1-9.24h-2a34.85,34.85,0,0,1-1,8.74Zm1.1-9.24a35.44,35.44,0,0,0-1.1-9l-1.93.52a33.33,33.33,0,0,1,1,8.5Zm-1.09-9a17.73,17.73,0,0,0-3.64-7.4l-1.54,1.29a15.59,15.59,0,0,1,3.23,6.57Zm-3.64-7.4a17.39,17.39,0,0,0-7.15-4.9L481,23.79a15.4,15.4,0,0,1,6.34,4.33Zm-7.12-4.89a28,28,0,0,0-10.93-1.86v2a26,26,0,0,1,10.14,1.7Zm-10.93-1.86h-11v2h11Zm-12,1V65.23h2V21.08Zm1,45.15h11.84v-2H459.78ZM564,85l-1,.22.17.78h.8ZM545,1.2V.2h-1.26L544,1.42Zm23.79,0,1-.2-.16-.8h-.82Zm11.71,58.47-1,.2h2ZM592.91,1.2V.2h-.81l-.17.79Zm26.75,0,1-.2-.16-.8h-.82Zm12.19,58.47-1,.2h2ZM643,1.2V.2h-.83L642,1Zm22.49,0,1,.22L666.72.2h-1.25ZM646.77,85v1h.8l.17-.78Zm-28.65,0-1,.21.17.79h.8ZM605.93,28.66l1-.21h-2ZM593.86,85v1h.81l.17-.79ZM565,84.78,546,1l-2,.44,19.06,83.8ZM545,2.2h23.79V.2H545Zm22.81-.8L579.5,59.87l2-.4L569.75,1Zm13.67,58.48L593.89,1.41l-2-.42L579.51,59.46ZM592.91,2.2h26.75V.2H592.91Zm25.77-.8,12.19,58.47,2-.4L620.64,1Zm14.16,58.46L644,1.39,642,1,630.87,59.48ZM643,2.2h22.49V.2H643ZM664.49,1l-18.7,83.8,2,.44,18.7-83.8ZM646.77,84H618.12v2h28.65Zm-27.67.79L606.91,28.45l-2,.42,12.2,56.34ZM605,28.45,592.88,84.79l2,.42,12.07-56.34ZM593.86,84H564v2h29.83ZM727.94,3.21l-.36.93h0Zm13.49,8.52-.7.71h0Zm8.76,13.38-.93.36h0Zm.12,35.15.93.36h0ZM741.55,74l.71.71h0Zm-13.61,8.88.37.93h0Zm-35.15,0-.36.93Zm-13.61-8.64-.72.7h0Zm-8.64-13.61-.94.35h0Zm.11-35.27-.92-.38h0Zm8.88-13.5.7.72Zm13.61-8.64-.36-.93h0Zm-2.48,48.06-1,.27v0h0Zm3.9,7.34-.78.61h0Zm6.63,5.2-.45.9h0Zm19.18-.12.47.89h0Zm6.39-5.32.79.61h0Zm3.55-7.22-1-.28h0Zm.12-15.63-1,.25h0Zm-3.55-7.45.8-.6h0Zm-6.51-5.45-.5.87h0ZM701,22.39l-.44-.9h0Zm-6.63,5.2-.78-.63h0Zm-3.67,7.22-1-.28Zm20-33.68a45.83,45.83,0,0,1,16.92,3l.73-1.86A47.86,47.86,0,0,0,710.66-.87Zm16.93,3a36,36,0,0,1,13.14,8.29L742.14,11a38.19,38.19,0,0,0-13.85-8.76Zm13.15,8.31a35.41,35.41,0,0,1,8.52,13l1.87-.72a37.51,37.51,0,0,0-9-13.74Zm8.53,13a45,45,0,0,1,3.12,17.14h2a46.82,46.82,0,0,0-3.27-17.9Zm3.12,17.14a48.09,48.09,0,0,1-3,17.28l1.87.71a50,50,0,0,0,3.14-18Zm-3,17.27a39.06,39.06,0,0,1-8.54,13.39l1.43,1.4a41.07,41.07,0,0,0,9-14.07Zm-8.53,13.39a39.36,39.36,0,0,1-13.28,8.65l.75,1.86a41.34,41.34,0,0,0,13.94-9.1Zm-13.27,8.65a46.13,46.13,0,0,1-17,3v2a48.2,48.2,0,0,0,17.77-3.15Zm-17,3a47.73,47.73,0,0,1-17.39-3l-.72,1.86A49.74,49.74,0,0,0,710.54,87Zm-17.39-3a38.72,38.72,0,0,1-13.27-8.43l-1.4,1.43a40.72,40.72,0,0,0,13.95,8.86Zm-13.26-8.41a38.55,38.55,0,0,1-8.42-13.27L669.6,61a40.82,40.82,0,0,0,8.86,14Zm-8.42-13.26A49.26,49.26,0,0,1,668.58,43h-2a51.18,51.18,0,0,0,3,18ZM668.58,43a47.38,47.38,0,0,1,3-17.27L669.72,25a49.44,49.44,0,0,0-3.14,18Zm3-17.26a37.94,37.94,0,0,1,8.65-13.15l-1.4-1.43A40,40,0,0,0,669.73,25Zm8.65-13.15A38.91,38.91,0,0,1,693.5,4.14l-.72-1.86a40.82,40.82,0,0,0-13.95,8.86ZM693.5,4.14a47.12,47.12,0,0,1,17.16-3v-2a49.1,49.1,0,0,0-17.88,3.15Zm-5,38.72a31.23,31.23,0,0,0,1.23,8.68l1.92-.55a29.57,29.57,0,0,1-1.15-8.13Zm1.24,8.71a24.3,24.3,0,0,0,4.07,7.65L695.35,58a22.56,22.56,0,0,1-3.74-7Zm4.08,7.67a20.9,20.9,0,0,0,7,5.47l.9-1.79a19,19,0,0,1-6.3-5Zm7,5.48a24.66,24.66,0,0,0,10.35,2v-2a22.74,22.74,0,0,1-9.52-1.81Zm10.35,2a20.59,20.59,0,0,0,9.71-2.13l-.94-1.77a18.47,18.47,0,0,1-8.77,1.9Zm9.72-2.14a21.26,21.26,0,0,0,6.7-5.59L726,57.75a19.25,19.25,0,0,1-6.08,5.07Zm6.71-5.6a22.22,22.22,0,0,0,3.71-7.56l-1.93-.52A20.26,20.26,0,0,1,726,57.77Zm3.71-7.54a29.17,29.17,0,0,0,1.22-8.21h-2a27.19,27.19,0,0,1-1.14,7.65Zm1.22-8.21a31,31,0,0,0-1.1-7.95l-1.93.51a29.11,29.11,0,0,1,1,7.44Zm-1.09-7.94a22.29,22.29,0,0,0-3.72-7.81l-1.6,1.2a20.09,20.09,0,0,1,3.38,7.1Zm-3.72-7.81a20.28,20.28,0,0,0-6.85-5.73l-.93,1.77a18.31,18.31,0,0,1,6.18,5.16Zm-6.81-5.71a19.93,19.93,0,0,0-10.09-2.39v2a18,18,0,0,1,9.09,2.12Zm-10.09-2.39a23.24,23.24,0,0,0-10.26,2.12l.87,1.8a21.19,21.19,0,0,1,9.39-1.92Zm-10.27,2.12a20.83,20.83,0,0,0-7,5.47l1.55,1.27a18.71,18.71,0,0,1,6.3-4.95Zm-7,5.49a22.38,22.38,0,0,0-3.84,7.55l1.92.57a20.4,20.4,0,0,1,3.5-6.89Zm-3.84,7.55a29.23,29.23,0,0,0-1.23,8.33h2a27.12,27.12,0,0,1,1.15-7.76ZM811.65,2.26l-.17,1h0Zm10.89,3.91L822,7Zm11.37,22.61,1,0v0Zm-4,14.79-.86-.5h0ZM817.45,53.4l-.35-.94-1.13.43.63,1ZM836.86,85v1h1.79l-.93-1.52Zm-24.38,0-.87.49.29.51h.58Zm-16.1-28.29.87-.49-.28-.51h-.59Zm-10.29,0v-1h-1v1Zm0,28.29v1h1V85Zm-21.43,0h-1v1h1Zm0-83.8V.2h-1v1ZM809.4,35.64l-.56-.82h0ZM811.77,25l.85-.52Zm-2.6-2.37-.5.87h0l0,0Zm-3.91-1.18-.15,1h0Zm-19.17-.36v-1h-1v1Zm0,16.81h-1v1h1Zm14-35.69a64.47,64.47,0,0,1,11.43,1l.35-2A66.44,66.44,0,0,0,800.05.2Zm11.45,1A28.55,28.55,0,0,1,822,7l1-1.7a30.35,30.35,0,0,0-11.25-4ZM822,7a22.66,22.66,0,0,1,7.71,8.06l1.72-1a24.43,24.43,0,0,0-8.39-8.75Zm7.71,8.06c2,3.43,3.1,8,3.18,13.71l2,0c-.08-5.94-1.21-10.87-3.46-14.69Zm3.18,13.67A29.78,29.78,0,0,1,829,43.07l1.73,1a31.85,31.85,0,0,0,4.16-15.27ZM829,43.08c-2.3,4.09-6.23,7.23-11.91,9.38l.71,1.87c6-2.27,10.35-5.67,12.94-10.27ZM816.6,53.92,836,85.52l1.71-1L818.31,52.87ZM836.86,84H812.48v2h24.38Zm-23.51.51-16.1-28.29-1.73,1,16.09,28.28Zm-17-28.8H786.09v2h10.29Zm-11.29,1V85h2V56.71Zm1,27.29H764.66v2h21.43Zm-20.43,1V1.2h-2V85Zm-1-82.8h35.39V.2H764.66Zm35.51,36.69c4.13,0,7.44-.76,9.81-2.43l-1.15-1.63c-1.89,1.33-4.73,2.06-8.66,2.06Zm9.8-2.42a8.39,8.39,0,0,0,3.75-7.34h-2a6.39,6.39,0,0,1-2.88,5.69Zm3.75-7.34a8.72,8.72,0,0,0-1.1-4.66l-1.7,1a6.91,6.91,0,0,1,.8,3.62Zm-1.1-4.66a7.28,7.28,0,0,0-3-2.74l-.9,1.79a5.3,5.3,0,0,1,2.2,2Zm-3-2.72a10.84,10.84,0,0,0-4.29-1.31l-.21,2a9,9,0,0,1,3.51,1.06Zm-4.24-1.3a32.12,32.12,0,0,0-4.89-.37v2a29.15,29.15,0,0,1,4.58.35Zm-4.89-.37H786.09v2h14.44Zm-15.44,1V37.89h2V21.08Zm1,17.81h14.08v-2H786.09Zm84,26.34h-1v1h1Zm40.12,0h1v-1h-1Zm0,19.77v1h1V85ZM848.7,85h-1v1h1Zm0-83.8V.2h-1v1Zm21.42,0h1V.2h-1Zm0,65h40.12v-2H870.12Zm39.12-1V85h2V65.23Zm1,18.77H848.7v2h61.54ZM849.7,85V1.2h-2V85Zm-1-82.8h21.42V.2H848.7Zm20.42-1v64h2V1.2ZM920.59,85h-1v1h1Zm0-83.8V.2h-1v1Zm50.66,2.72-.32,1h0Zm13.61,7.81-.68.73Zm8.53,13-.94.36h0ZM985.1,74.47l-.68-.74h0ZM963.79,63.69l.36.94h0Zm6.4-4.49-.77-.65h0Zm3.55-7,1,.26h0Zm0-17.75-1,.23h0v0Zm-3.44-7-.76.64Zm-6.74-4.62-.4.92h0ZM942,21.08v-1h-1v1Zm0,44.15h-1v1h1ZM921.59,85V1.2h-2V85Zm-1-82.8h32.79V.2H920.59Zm32.79,0a53.69,53.69,0,0,1,17.55,2.67L971.58,3A55.77,55.77,0,0,0,953.38.2Zm17.56,2.67a34.73,34.73,0,0,1,13.24,7.59L985.55,11a36.75,36.75,0,0,0-14-8Zm13.24,7.59a33,33,0,0,1,8.27,12.65l1.87-.71A35,35,0,0,0,985.55,11Zm8.27,12.66a48.15,48.15,0,0,1,3,17.74h2a50.28,50.28,0,0,0-3.14-18.47Zm3,17.74c0,13.87-3.73,24.1-11,30.87l1.36,1.47c7.84-7.27,11.68-18.12,11.68-32.34Zm-11,30.88C977.16,80.54,966.94,84,953.62,84v2c13.66,0,24.43-3.56,32.16-10.8ZM953.62,84h-33v2h33Zm.23-17.77a29,29,0,0,0,10.3-1.6l-.71-1.87a27,27,0,0,1-9.59,1.47Zm10.33-1.61A17.08,17.08,0,0,0,971,59.84l-1.53-1.28a15.09,15.09,0,0,1-6,4.21ZM971,59.84a18.67,18.67,0,0,0,3.75-7.37L972.77,52a16.73,16.73,0,0,1-3.35,6.59Zm3.76-7.38a37.16,37.16,0,0,0,1.09-9.24h-2a34.86,34.86,0,0,1-1,8.74Zm1.09-9.24a35,35,0,0,0-1.1-9l-1.93.52a32.89,32.89,0,0,1,1,8.5Zm-1.09-9a17.61,17.61,0,0,0-3.64-7.4l-1.53,1.29a15.46,15.46,0,0,1,3.22,6.57Zm-3.64-7.4a17.26,17.26,0,0,0-7.15-4.9l-.72,1.86a15.4,15.4,0,0,1,6.34,4.33ZM964,21.94A28,28,0,0,0,953,20.08v2a26,26,0,0,1,10.14,1.7ZM953,20.08H942v2h11Zm-12,1V65.23h2V21.08Zm1,45.15h11.83v-2H942Z" transform="translate(-8.34 0.87)" fill="#393939"/></svg>