<svg width="16" height="17" viewBox="0 0 16 17" fill="none" xmlns="http://www.w3.org/2000/svg">
<g clip-path="url(#clip0_232_2411)">
<path fill-rule="evenodd" clip-rule="evenodd" d="M16 8.78862C16 13.166 12.418 16.7151 8 16.7151C3.582 16.7151 0 13.166 0 8.78862C0 4.41125 3.582 0.862183 8 0.862183C12.418 0.862183 16 4.41125 16 8.78862ZM8.28667 6.71388C7.50867 7.03424 5.95333 7.69808 3.62133 8.70474C3.24267 8.85402 3.044 9 3.026 9.14267C2.99533 9.38443 3.30067 9.47955 3.71533 9.60835C3.772 9.62619 3.83067 9.64402 3.89067 9.66384C4.29933 9.79528 4.84867 9.94919 5.134 9.95513C5.39333 9.96042 5.68267 9.85473 6.002 9.63807C8.18067 8.18027 9.30533 7.44377 9.376 7.42792C9.426 7.41669 9.49533 7.40216 9.542 7.44377C9.58867 7.48472 9.584 7.56267 9.57933 7.58381C9.54867 7.71129 8.35267 8.81372 7.73267 9.38443C7.53933 9.56211 7.40267 9.68828 7.37467 9.71734C7.312 9.78141 7.248 9.84284 7.18667 9.90163C6.80667 10.2636 6.52267 10.5357 7.20267 10.9796C7.52933 11.193 7.79067 11.3693 8.05133 11.545C8.336 11.7373 8.62 11.9288 8.988 12.1679C9.08133 12.2287 9.17067 12.2915 9.258 12.3529C9.58933 12.5874 9.88733 12.7974 10.2553 12.7644C10.4687 12.7446 10.69 12.5458 10.802 11.9519C11.0667 10.5476 11.588 7.50652 11.7087 6.25282C11.716 6.14873 11.7115 6.04415 11.6953 5.94105C11.6856 5.85778 11.6447 5.78115 11.5807 5.72638C11.4853 5.64909 11.3373 5.63258 11.2707 5.6339C10.97 5.63918 10.5087 5.79837 8.28667 6.71388Z" fill="white"/>
</g>
<defs>
<clipPath id="clip0_232_2411">
<rect width="16" height="15.8529" fill="white" transform="translate(0 0.862183)"/>
</clipPath>
</defs>
</svg>
