<svg width="20" height="21" viewBox="0 0 20 21" fill="none" xmlns="http://www.w3.org/2000/svg">
<g clip-path="url(#clip0_232_2402)">
<path d="M9.0026 20.6556C7.41815 20.4938 5.89577 19.9587 4.5626 19.095C3.4401 18.3705 3.18635 18.072 3.18635 17.4775C3.18635 16.2824 4.51385 14.1881 6.7851 11.8015C8.07385 10.4453 9.87135 8.8563 10.0651 8.89965C10.4426 8.98387 13.4626 11.9005 14.5926 13.2728C16.3801 15.4439 17.2026 17.2224 16.7851 18.0151C16.4676 18.617 14.4976 19.7948 13.0514 20.2468C11.8589 20.6196 10.2926 20.7782 9.0026 20.6556ZM1.6701 16.2341C0.736354 14.8172 0.265104 13.4227 0.0376044 11.4039C-0.0373956 10.7364 -0.0098956 10.3561 0.208854 8.98882C0.481354 7.2834 1.46135 5.31046 2.6401 4.09672C3.14135 3.58026 3.18635 3.56788 3.7976 3.77099C4.54135 4.01869 5.3351 4.56116 6.56385 5.66343L7.28135 6.30622L6.8901 6.78304C5.0701 8.99625 3.1501 12.1334 2.4251 14.0741C2.03135 15.1293 1.8726 16.1883 2.0426 16.6292C2.15635 16.9264 2.05135 16.8149 1.6676 16.2341H1.6701ZM18.0464 16.4756C18.1389 16.0297 18.0226 15.2123 17.7489 14.3862C17.1576 12.5991 15.1801 9.27368 13.3639 7.0134L12.7926 6.30126L13.4101 5.73898C14.2176 5.00455 14.7789 4.56488 15.3851 4.19085C15.8614 3.89732 16.5439 3.636 16.8364 3.636C17.0176 3.636 17.6539 4.28993 18.1676 5.00331C18.985 6.15751 19.5562 7.46477 19.8464 8.84515C20.0376 9.74679 20.0539 11.6764 19.8764 12.5755C19.7097 13.3809 19.4584 14.1667 19.1264 14.92C18.9026 15.4068 18.3464 16.3517 18.1014 16.6589C17.9764 16.8174 17.9764 16.8162 18.0476 16.4756H18.0464ZM9.16885 3.29788C8.33135 2.87679 7.03885 2.42474 6.32385 2.30336C6.0099 2.25703 5.69233 2.23921 5.3751 2.25011C4.78635 2.27983 4.8126 2.25011 5.7576 1.80672C6.4984 1.45423 7.2813 1.19621 8.0876 1.03885C9.0876 0.829539 10.9701 0.828301 11.9551 1.03265C13.0176 1.25559 14.2714 1.71631 14.9776 2.14731L15.1876 2.27488L14.7064 2.25011C13.7489 2.20304 12.3564 2.5845 10.8589 3.30655C10.4076 3.52453 10.0139 3.69792 9.9851 3.69297C9.70871 3.56932 9.43609 3.43757 9.1676 3.29788H9.16885Z" fill="white"/>
</g>
<defs>
<clipPath id="clip0_232_2402">
<rect width="20" height="19.8161" fill="white" transform="translate(0 0.880371)"/>
</clipPath>
</defs>
</svg>
