<svg width="16" height="17" viewBox="0 0 16 17" fill="none" xmlns="http://www.w3.org/2000/svg">
<path d="M14.4 2.44751H1.6C0.72 2.44751 0.00799999 3.16089 0.00799999 4.0328L0 13.5445C0 14.4164 0.72 15.1298 1.6 15.1298H14.4C15.28 15.1298 16 14.4164 16 13.5445V4.0328C16 3.16089 15.28 2.44751 14.4 2.44751ZM14.08 5.81625L8.424 9.31974C8.168 9.47826 7.832 9.47826 7.576 9.31974L1.92 5.81625C1.83978 5.77163 1.76954 5.71135 1.71351 5.63906C1.65749 5.56676 1.61685 5.48395 1.59406 5.39565C1.57127 5.30734 1.5668 5.21537 1.58093 5.12531C1.59505 5.03524 1.62747 4.94895 1.67623 4.87165C1.72498 4.79436 1.78906 4.72767 1.86458 4.67563C1.9401 4.62358 2.0255 4.58726 2.1156 4.56886C2.2057 4.55046 2.29863 4.55037 2.38876 4.56858C2.4789 4.5868 2.56437 4.62295 2.64 4.67484L8 7.99602L13.36 4.67484C13.4356 4.62295 13.5211 4.5868 13.6112 4.56858C13.7014 4.55037 13.7943 4.55046 13.8844 4.56886C13.9745 4.58726 14.0599 4.62358 14.1354 4.67563C14.2109 4.72767 14.275 4.79436 14.3238 4.87165C14.3725 4.94895 14.405 5.03524 14.4191 5.12531C14.4332 5.21537 14.4287 5.30734 14.4059 5.39565C14.3832 5.48395 14.3425 5.56676 14.2865 5.63906C14.2305 5.71135 14.1602 5.77163 14.08 5.81625Z" fill="white"/>
</svg>
