<svg width="20" height="21" viewBox="0 0 20 21" fill="none" xmlns="http://www.w3.org/2000/svg">
<g clip-path="url(#clip0_232_2398)">
<path d="M2.94941 0.880371C1.80379 0.880371 1.38379 1.29961 1.38379 2.4316V16.1066C1.38379 16.236 1.39066 16.3549 1.40066 16.4651C1.43004 16.7134 1.43004 16.9556 1.66379 17.2262C1.68629 17.2584 1.92129 17.4293 1.92129 17.4293C2.04816 17.4906 2.13566 17.5358 2.27879 17.5934L9.22566 20.4766C9.58379 20.6383 9.73754 20.7064 9.99754 20.6965H10.0007C10.2638 20.7064 10.4175 20.6389 10.7757 20.4766L17.7188 17.5934C17.8657 17.5358 17.9494 17.49 18.0794 17.4293C18.0794 17.4293 18.3144 17.2516 18.3369 17.2262C18.5713 16.9556 18.5713 16.7134 18.6 16.4651C18.61 16.3555 18.6169 16.2366 18.6169 16.1103V2.43222C18.6169 1.30022 18.1938 0.88099 17.0513 0.88099L2.94941 0.880371ZM14.0794 3.44718H14.645C15.5894 3.44718 16.0519 3.90233 16.0519 4.85102V6.40225H14.9063V4.91171C14.9063 4.6089 14.7663 4.47018 14.4694 4.47018H14.2744C13.9688 4.47018 13.8288 4.6089 13.8288 4.91171V9.7103C13.8288 10.0131 13.9688 10.1518 14.2744 10.1518H14.4925C14.785 10.1518 14.925 10.0131 14.925 9.7103V7.99435H16.0707V9.76542C16.0707 10.7098 15.6025 11.1748 14.655 11.1748H14.0794C13.1288 11.1748 12.6625 10.7067 12.6625 9.76542V4.85907C12.6625 3.91471 13.1282 3.44656 14.0794 3.44656V3.44718ZM3.92254 3.51282H6.51691V4.56741H5.08754V6.71498H6.46504V7.76709H5.08754V10.0565H6.53691V11.1117H3.92254V3.51282ZM7.10254 3.51282H8.93254C9.87941 3.51282 10.3482 3.98035 10.3482 4.92471V6.9441C10.3482 7.88846 9.87879 8.35352 8.93254 8.35352H8.27191V11.1111H7.10254V3.51282ZM10.8757 3.51282H12.0407V11.1117H10.8757V3.51282ZM8.26816 4.53458V7.33361H8.75004C9.04316 7.33361 9.18316 7.19242 9.18316 6.88837V4.97921C9.18316 4.67639 9.04316 4.53397 8.75004 4.53397L8.26816 4.53458ZM5.05504 12.9168H5.22754L5.26691 12.9236H5.32941L5.36191 12.9335H5.39441L5.42379 12.9428L5.45629 12.9496L5.48191 12.9564L5.54004 12.9694L5.57316 12.9787L5.59566 12.9855L5.62129 12.9954L5.65379 13.0054L5.67629 13.0146L5.70941 13.0276L5.73879 13.0406L5.76441 13.0561L5.79379 13.0691L5.81629 13.0846L5.84941 13.1013L5.87504 13.1168L5.90066 13.1298L5.92629 13.149L5.95316 13.1657L5.97566 13.1849L6.05379 13.2438L6.03379 13.2692L6.01129 13.2914L5.99129 13.3144L5.96879 13.3397L5.95316 13.362L5.93316 13.385L5.91066 13.4072L5.89066 13.4326L5.87504 13.4549L5.85191 13.4816L5.83254 13.5038L5.81004 13.5292L5.79004 13.5522L5.77441 13.5775L5.75129 13.5998L5.73191 13.6265L5.70941 13.6488L5.68941 13.671L5.66691 13.6556L5.64129 13.6327L5.61441 13.6172L5.56629 13.585L5.53691 13.5683L5.51004 13.5528L5.48066 13.5361L5.45816 13.523L5.43254 13.5107L5.38004 13.4908L5.34754 13.4853L5.32191 13.4785L5.29254 13.4716L5.25941 13.4648L5.22691 13.4617H5.19441L5.15629 13.4549H5.09379L5.06129 13.458H5.02879L4.99629 13.4679L4.97066 13.4747L4.94129 13.4847L4.91191 13.4902L4.88504 13.5032L4.85254 13.5162L4.80754 13.5484L4.78066 13.5639L4.75816 13.5837L4.73566 13.5992L4.71254 13.619L4.69691 13.6413L4.67004 13.6636L4.63754 13.7088L4.62191 13.7342L4.60879 13.7633L4.59316 13.7862L4.57629 13.8153L4.56629 13.8444L4.55379 13.8698L4.54379 13.902L4.54066 13.9342L4.53129 13.964L4.52441 13.9962V14.0284L4.52129 14.0606V14.1349L4.52441 14.1671V14.1925L4.52754 14.2247L4.53316 14.2538L4.54316 14.2792L4.54629 14.312L4.55629 14.3374L4.56566 14.3597L4.57879 14.3919L4.59566 14.4241L4.60816 14.447L4.64066 14.4984L4.66066 14.5238L4.67629 14.5467L4.70316 14.5659L4.71879 14.5882L4.74129 14.608L4.79379 14.647L4.81629 14.6594L4.84191 14.6761L4.87191 14.6891L4.90441 14.7015L4.92691 14.7145L4.99191 14.7337L5.02129 14.7368L5.05379 14.7467L5.08629 14.7498H5.22629L5.26566 14.7467H5.29504L5.32816 14.7337L5.36066 14.7306L5.39316 14.7213L5.41879 14.7145L5.44816 14.7015L5.47379 14.6891L5.50316 14.6761L5.52316 14.6631L5.54879 14.6476V14.3603H5.08941V13.8996H6.12754V14.9318L6.10504 14.9473L6.08254 14.9665L6.05941 14.9832L6.03379 15.0024L6.00816 15.0154L5.98566 15.0353L5.93316 15.0675L5.90066 15.0829L5.84879 15.1151L5.81566 15.1281L5.79004 15.1405L5.76066 15.1535L5.69566 15.1789L5.67004 15.1919L5.61066 15.2111L5.58129 15.2179L5.55191 15.2279L5.51941 15.2378L5.49379 15.2433L5.39629 15.2631L5.36629 15.2662L5.30129 15.2731L5.26566 15.2762L5.23316 15.2786L5.19754 15.2817H5.03504L5.00254 15.2762H4.97004L4.93754 15.2693H4.90816L4.87566 15.2594L4.78066 15.2402L4.75504 15.2303L4.72566 15.2272L4.69316 15.2142L4.63379 15.195L4.57566 15.1696L4.54316 15.1566L4.52066 15.1436L4.48816 15.1312L4.46504 15.1114L4.43254 15.099L4.41316 15.0823L4.38754 15.0668L4.33504 15.0278L4.30941 15.0111L4.28941 14.9919L4.26379 14.9721L4.22129 14.9306L4.19879 14.9108L4.17941 14.8885L4.15629 14.8656L4.14066 14.8402L4.12066 14.821L4.10504 14.7944L4.08504 14.769L4.06941 14.7467L4.05254 14.7213L4.03691 14.6916L4.02379 14.6662L4.01066 14.6371L3.99816 14.6117L3.97254 14.5529L3.96254 14.5306L3.94941 14.5015L3.94254 14.4724L3.93691 14.447L3.93004 14.4148L3.92004 14.385L3.91316 14.3528L3.91004 14.3275L3.90441 14.2953L3.89754 14.2377L3.89066 14.1733V14.0023L3.89754 13.9695V13.9373L3.90754 13.9051V13.8729L3.91691 13.8438L3.92691 13.8116L3.94004 13.754L3.94941 13.7218L3.95941 13.6927L3.99879 13.6054L4.01129 13.58L4.02441 13.5509L4.04129 13.5212L4.05379 13.4958L4.07066 13.4735L4.10316 13.4215L4.12254 13.3961L4.14254 13.3738L4.15816 13.3484L4.20066 13.3063L4.22004 13.2834L4.24316 13.2611L4.26254 13.2388L4.28941 13.219L4.33441 13.18L4.36004 13.1608L4.38691 13.1441L4.40941 13.1249L4.43504 13.1081L4.46191 13.0958L4.49129 13.079L4.52379 13.0636L4.54629 13.0468L4.57879 13.0345L4.60816 13.0215L4.63754 13.006L4.66441 12.9992L4.69691 12.9893L4.72254 12.9762L4.75191 12.9707L4.78129 12.9608L4.81379 12.954L4.84066 12.944L4.87316 12.9372H4.90566L4.93504 12.9279H4.96754L5.00004 12.9211H5.02941L5.05504 12.9168ZM15.0457 12.9236H15.2182L15.2575 12.9304H15.3194L15.3519 12.9397H15.3875L15.42 12.9496L15.4782 12.9626L15.5107 12.9694L15.54 12.975L15.5732 12.9849L15.6025 12.9948L15.6282 13.0016L15.6575 13.0109L15.69 13.0208L15.7157 13.0338L15.7482 13.0462L15.7782 13.0592L15.8075 13.0759L15.83 13.0883L15.8594 13.105L15.8888 13.1174L15.9157 13.1342L15.945 13.1534L15.9675 13.1701L16.02 13.2091L16.0457 13.2246L16.0257 13.25L16.01 13.2766L15.9907 13.2989L15.9707 13.3243L15.955 13.3534L15.9382 13.38L15.9188 13.4023L15.8988 13.4277L15.8832 13.4543L15.8632 13.4797L15.8475 13.502L15.8275 13.5274L15.8119 13.5571L15.7919 13.5825L15.7725 13.6048L15.7525 13.6302L15.7369 13.6568L15.7113 13.637L15.6813 13.6215L15.6588 13.6048L15.6332 13.5893L15.6038 13.5763L15.5769 13.5596L15.5475 13.5472L15.525 13.5342L15.4925 13.5218L15.4694 13.5088L15.4438 13.4989L15.3857 13.4797L15.3207 13.4599L15.2232 13.4407L15.1907 13.4376L15.1313 13.4308H15.0632L15.0275 13.4376L14.995 13.4444L14.9657 13.4512L14.94 13.4636L14.9169 13.4766L14.8913 13.4989L14.8719 13.528L14.8588 13.5577V13.6345L14.8757 13.6698L14.8882 13.6896L14.9082 13.7088L14.9407 13.7255L14.9663 13.741L14.9957 13.754L15.0282 13.7664L15.0707 13.7763L15.0932 13.7862L15.12 13.793L15.1525 13.7999L15.1782 13.8091L15.2075 13.816L15.2432 13.8259L15.2757 13.8358L15.3113 13.8451L15.3469 13.8519L15.3763 13.8618L15.4119 13.8711L15.4444 13.8779L15.4738 13.8847L15.5719 13.9138L15.5975 13.9237L15.63 13.9336L15.6594 13.946L15.6919 13.9627L15.7569 13.9881L15.7863 14.0048L15.8388 14.037L15.8869 14.0723L15.9169 14.0915L15.9394 14.1138L15.9619 14.1404L15.985 14.1627L16.0007 14.185L16.0238 14.2172L16.0394 14.2401L16.0525 14.2723L16.065 14.2915L16.075 14.3237L16.085 14.3504L16.0919 14.3795L16.1044 14.4439L16.1075 14.4761L16.1107 14.5052V14.5826L16.1075 14.6179L16.1007 14.6823L16.0938 14.7145L16.0844 14.7436L16.0775 14.7758L16.0675 14.808L16.0582 14.8371L16.045 14.86L16.0319 14.8891L16.0163 14.9145L15.9963 14.9374L15.9638 14.9888L15.9244 15.034L15.9019 15.0495L15.8763 15.0724L15.8563 15.0916L15.8307 15.1108L15.805 15.1238L15.7794 15.1436L15.7494 15.1591L15.6913 15.1882L15.6588 15.2012L15.6294 15.2136L15.5969 15.2235L15.5675 15.2334L15.5407 15.2402L15.4757 15.2526L15.4532 15.2594L15.4207 15.2662H15.3882L15.3588 15.2731H15.3263L15.2938 15.2799H15.0619L14.9644 15.27L14.9319 15.2631L14.9025 15.2601L14.8375 15.2477L14.8019 15.2409L14.7725 15.234L14.74 15.2241L14.7069 15.2173L14.6775 15.208L14.645 15.1981L14.6125 15.1851L14.5869 15.1758L14.5544 15.1659L14.5219 15.1529L14.4988 15.1405L14.4663 15.1306L14.4407 15.1139L14.4082 15.1015L14.3825 15.0848L14.3594 15.0693L14.3269 15.0526L14.3044 15.0402L14.2788 15.0204L14.2532 15.0049L14.2263 14.9851L14.2038 14.9659L14.1782 14.9461L14.155 14.9306L14.1294 14.9077L14.1494 14.8823L14.1719 14.86L14.1913 14.8371L14.2144 14.8117L14.23 14.7894L14.25 14.764L14.2725 14.7411L14.2919 14.7188L14.315 14.6934L14.3307 14.6705L14.3538 14.6482L14.3732 14.6228L14.3932 14.5999L14.4157 14.5745L14.4313 14.5522L14.4544 14.5293L14.4769 14.5039L14.4994 14.5238L14.5294 14.543L14.5519 14.5622L14.5844 14.5789L14.6069 14.5956L14.6363 14.6148L14.6632 14.6315L14.6925 14.6439L14.715 14.6606L14.7444 14.6699L14.7769 14.6829L14.8038 14.6959L14.8332 14.7052L14.8588 14.7182L14.8913 14.7281L14.9207 14.7374L14.9532 14.7473L14.9857 14.7504L15.0157 14.7603L15.0482 14.7634H15.0838L15.1132 14.7727H15.2888L15.3182 14.7671L15.3507 14.7603L15.3732 14.7572L15.4 14.7473L15.4225 14.7349L15.4519 14.7151L15.4688 14.6928L15.4813 14.6674L15.4913 14.6377V14.5634L15.4782 14.5343L15.4625 14.5089L15.4425 14.4897L15.4132 14.4699L15.3907 14.4606L15.3613 14.4476L15.3288 14.4346L15.2932 14.4191L15.27 14.4123L15.2444 14.4055L15.2119 14.3956L15.1894 14.39L15.1569 14.3801L15.1244 14.377L15.0913 14.364L15.0588 14.3609L15.0232 14.3516L14.9938 14.3448L14.9613 14.3349L14.9288 14.3281L14.8963 14.3188L14.8669 14.3089L14.8344 14.3021L14.8088 14.2922L14.7494 14.273L14.7169 14.26L14.6844 14.2507L14.6194 14.224L14.59 14.2086L14.5575 14.1918L14.535 14.1764L14.505 14.1596L14.4825 14.1442L14.4532 14.1274L14.4107 14.0853L14.3882 14.0661L14.3488 14.0209L14.3319 13.9986L14.3194 13.9763L14.2994 13.9466L14.29 13.9243L14.26 13.8469L14.2544 13.8147L14.2475 13.7856V13.7565L14.2407 13.7243V13.5924L14.2475 13.528L14.2544 13.5014L14.26 13.4723L14.27 13.4469L14.2769 13.4147L14.29 13.3924L14.3025 13.3596L14.3157 13.3342L14.3282 13.302L14.345 13.2797L14.3675 13.2543L14.3844 13.2277L14.41 13.2054L14.4294 13.1831L14.4494 13.1564L14.4788 13.1342L14.4988 13.1174L14.5244 13.0982L14.5763 13.066L14.6057 13.0493L14.665 13.0202L14.6907 13.0109L14.72 13.001L14.7525 12.988L14.785 12.9787L14.8082 12.9719L14.8375 12.9651L14.8632 12.9583L14.8925 12.9515L14.925 12.9447L14.99 12.9391L15.02 12.936L15.0457 12.9236ZM7.34691 12.9459H7.93629L7.96316 13.0047L7.97566 13.0301L7.98566 13.0623L7.99879 13.0914L8.00816 13.1168L8.02504 13.1459L8.04441 13.2048L8.06129 13.2339L8.08691 13.2914L8.09379 13.3168L8.14566 13.4333L8.15566 13.4624L8.16879 13.489L8.18441 13.5181L8.19129 13.5472L8.20816 13.5794L8.21379 13.6085L8.24379 13.6661L8.25629 13.689L8.26941 13.7212L8.27941 13.7534L8.28879 13.7757L8.30566 13.8079L8.31566 13.8345L8.32816 13.8667L8.33816 13.889L8.35129 13.9212L8.38066 13.9788L8.39004 14.0079L8.39691 14.0376L8.41004 14.0668L8.42566 14.0921L8.43879 14.1243L8.45191 14.1534L8.46129 14.1788L8.48816 14.2377L8.49754 14.2668L8.51066 14.2959L8.52066 14.325L8.53316 14.3504L8.55004 14.3801L8.56254 14.4092L8.57566 14.4346L8.58254 14.4668L8.60816 14.5244L8.62129 14.551L8.63066 14.5801L8.65754 14.6377L8.67316 14.6699L8.68004 14.6953L8.69691 14.7281L8.70254 14.7504L8.71566 14.7826L8.73254 14.8148L8.74504 14.8371L8.75504 14.8693L8.76816 14.8959L8.77754 14.9281L8.79441 14.9504L8.81379 15.0148L8.82691 15.0377L8.83941 15.0699L8.85629 15.0953L8.86941 15.1275L8.87504 15.1566L8.88504 15.182L8.89816 15.2111L8.91379 15.2378H8.26316L8.24754 15.2111L8.23754 15.182L8.22441 15.1529L8.21191 15.1207L8.20504 15.0953L8.17816 15.0377L8.16879 15.0111L8.14316 14.9535L8.13316 14.9281L8.12004 14.8959L8.10066 14.8371L8.08754 14.8117H7.18254L7.17004 14.8408L7.16004 14.8674L7.14691 14.8996L7.13441 14.9288L7.12754 14.9541L7.11441 14.9863L7.10191 15.0117L7.09191 15.0408L7.07879 15.0675L7.06629 15.0997L7.05629 15.122L7.04316 15.1542L7.03379 15.1864L7.02066 15.2093L7.01066 15.2415H6.36629L6.37566 15.2117L6.40254 15.1542L6.41191 15.122L6.42191 15.0966L6.43879 15.0675L6.45129 15.0384L6.46441 15.0117L6.47129 14.9826L6.48379 14.9504L6.50066 14.925L6.51316 14.8959L6.53316 14.8371L6.56254 14.7795L6.57254 14.7504L6.58504 14.725L6.59504 14.6953L6.63441 14.6086L6.64754 14.5764L6.65691 14.551L6.66691 14.5219L6.68379 14.4953L6.69629 14.4631L6.70629 14.434L6.71629 14.4086L6.72879 14.3764L6.74566 14.3535L6.75566 14.3213L6.76816 14.2959L6.77816 14.2668L6.79129 14.2346L6.80691 14.2092L6.81691 14.177L6.82941 14.1541L6.83941 14.1219L6.85254 14.0897L6.86504 14.0674L6.87816 14.0352L6.88816 14.0085L6.90066 13.9763L6.91066 13.954L6.92754 13.9218L6.94004 13.8896L6.95316 13.8643L6.96004 13.8351L6.97254 13.8054L6.98941 13.7763L7.00191 13.7509L7.00879 13.7187L7.02191 13.6896L7.03504 13.663L7.06066 13.6054L7.07004 13.58L7.09691 13.5156L7.10941 13.4927L7.12254 13.4605L7.13254 13.4351L7.14191 13.4029L7.15504 13.3738L7.17191 13.3484L7.18441 13.3162L7.19441 13.2933L7.20441 13.2611L7.21691 13.2357L7.23379 13.2066L7.24379 13.1744L7.25316 13.1478L7.26629 13.1156L7.27879 13.0933L7.29566 13.0611L7.30566 13.0289L7.31504 13.0066L7.32816 12.9744L7.34691 12.9459ZM9.17691 12.9626H9.82129L9.84129 12.988L9.87379 13.04L9.88941 13.0691L9.90629 13.0914L9.92191 13.1205L9.93879 13.1459L9.95441 13.1756L9.97129 13.201L9.98691 13.2233L10.0038 13.2524L10.0194 13.2791L10.0425 13.3044L10.0519 13.3298L10.0719 13.3589L10.0875 13.3856L10.1075 13.4079L10.1207 13.437L10.1363 13.4624L10.1563 13.489L10.1657 13.5144L10.1888 13.5435L10.2369 13.6209L10.25 13.6463L10.2694 13.6717L10.2863 13.6971L10.3019 13.7268L10.3513 13.8036L10.3669 13.8333L10.3838 13.8587L10.4032 13.8333L10.4163 13.8005L10.4357 13.7782L10.4525 13.7491L10.4682 13.7268L10.4813 13.6946L10.5038 13.6717L10.5207 13.6426L10.5338 13.6203L10.5494 13.5936L10.5694 13.5645L10.585 13.5422L10.6019 13.51L10.6175 13.4877L10.6375 13.458L10.65 13.4357L10.6669 13.4035L10.6825 13.3843L10.6994 13.3577L10.7188 13.3255L10.7357 13.3032L10.7482 13.2741L10.7682 13.2512L10.7838 13.219L10.8007 13.1998L10.82 13.1744L10.8369 13.1422L10.8525 13.1193L10.8694 13.0902L10.885 13.0679L10.9019 13.0357L10.9213 13.0128L10.9344 12.9837L10.9513 12.9614H11.6057V15.2644H10.9932V13.9095L10.9775 13.9324L10.9575 13.9646L10.9419 13.9838L10.9219 14.0092L10.9094 14.0414L10.8894 14.0643L10.8738 14.0866L10.8538 14.1188L10.8213 14.164L10.8019 14.1894L10.785 14.2216L10.7657 14.2445L10.7488 14.2668L10.7363 14.299L10.7163 14.3213L10.7007 14.3442L10.6807 14.3764L10.665 14.3987L10.645 14.4241L10.6294 14.4532L10.6163 14.4761L10.5969 14.5015L10.58 14.5306L10.5607 14.5529L10.5407 14.5795L10.5282 14.6049L10.5113 14.634L10.4919 14.6569L10.4719 14.6823L10.4594 14.7145L10.4363 14.7337L10.4238 14.7591L10.4038 14.7919L10.3882 14.8142H10.375L10.3557 14.7851L10.3388 14.7585L10.3232 14.7294L10.3063 14.7071L10.2869 14.678L10.27 14.6526L10.2507 14.6259L10.2338 14.6005L10.2182 14.5714L10.2013 14.5491L10.1788 14.5194L10.1657 14.494L10.1463 14.4649L10.1294 14.4426L10.1138 14.4135L10.0938 14.3869L10.0782 14.3547L10.0582 14.3324L10.0425 14.3033L10.0257 14.2767L10.01 14.2476L9.99004 14.2253L9.97441 14.1962L9.95441 14.1708L9.94191 14.1442L9.92191 14.1188L9.90629 14.0897L9.88629 14.0674L9.87066 14.0376L9.85066 14.0123L9.83816 13.9832L9.81504 13.9609L9.80254 13.9311L9.78254 13.9057V15.2638H9.18066V12.9831L9.17691 12.9626ZM12.0669 12.9626H13.9V13.4822H12.6757V13.8531H13.7757V14.3436H12.6757V14.7368H13.9157V15.2594H12.07V12.9824L12.0669 12.9626ZM7.63316 13.6686L7.62316 13.6977L7.61379 13.7243L7.60066 13.7565L7.58754 13.7856L7.57816 13.8147L7.55129 13.8723L7.53879 13.9045L7.52879 13.9311L7.51879 13.9633L7.50629 13.9856L7.49629 14.0178L7.48316 14.05L7.47066 14.0729L7.46066 14.1051L7.44816 14.1305L7.43816 14.1627L7.42129 14.1918L7.41441 14.2172L7.40191 14.2494L7.38879 14.2792L7.37879 14.3045L7.36629 14.3367H7.90316L7.89066 14.3045L7.88066 14.2754L7.85504 14.2166L7.84504 14.1875L7.83191 14.1621L7.82254 14.1299L7.80941 14.1008L7.79941 14.0717L7.78691 14.0451L7.77691 14.016L7.76379 13.9838L7.75441 13.9584L7.72754 13.9008L7.72191 13.8711L7.70879 13.842L7.69566 13.8098L7.68629 13.7875L7.65941 13.7231L7.65004 13.694L7.63316 13.6686ZM6.67691 17.9811H13.3525L9.94504 19.0938L6.67691 17.9811Z" fill="white"/>
</g>
<defs>
<clipPath id="clip0_232_2398">
<rect width="20" height="19.8161" fill="white" transform="translate(0 0.880371)"/>
</clipPath>
</defs>
</svg>
