<svg width="16" height="16" viewBox="0 0 16 16" fill="none" xmlns="http://www.w3.org/2000/svg">
<path fill-rule="evenodd" clip-rule="evenodd" d="M0 8C0 3.58172 3.58172 0 8 0C12.4183 0 16 3.58172 16 8C16 12.4183 12.4183 16 8 16C3.58172 16 0 12.4183 0 8ZM7.09051 1.24145C7.41025 0.903361 7.71771 0.761905 8 0.761905C8.28229 0.761905 8.58975 0.903361 8.90949 1.24145C9.22998 1.58034 9.53616 2.09118 9.80129 2.754C10.298 3.99573 10.6244 5.70487 10.6628 7.61905H5.33715C5.37561 5.70487 5.70202 3.99573 6.19871 2.754C6.46384 2.09118 6.77002 1.58034 7.09051 1.24145ZM4.5751 7.61905C4.61355 5.6286 4.95192 3.8195 5.4913 2.47104C5.72861 1.87778 6.00996 1.36073 6.33197 0.955043C3.25779 1.68015 0.94047 4.3654 0.771758 7.61905H4.5751ZM0.771758 8.38095H4.5751C4.61355 10.3714 4.95192 12.1805 5.4913 13.529C5.72861 14.1222 6.00996 14.6393 6.33197 15.045C3.25779 14.3199 0.94047 11.6346 0.771758 8.38095ZM15.2282 7.61905C15.0595 4.3654 12.7422 1.68015 9.66803 0.955044C9.99004 1.36073 10.2714 1.87778 10.5087 2.47104C11.0481 3.8195 11.3864 5.6286 11.4249 7.61905H15.2282ZM11.4249 8.38095H15.2282C15.0595 11.6346 12.7422 14.3199 9.66803 15.045C9.99004 14.6393 10.2714 14.1222 10.5087 13.529C11.0481 12.1805 11.3864 10.3714 11.4249 8.38095ZM10.6628 8.38095C10.6244 10.2951 10.298 12.0043 9.80129 13.246C9.53616 13.9088 9.22998 14.4197 8.90949 14.7585C8.58975 15.0966 8.28229 15.2381 8 15.2381C7.71771 15.2381 7.41025 15.0966 7.09051 14.7585C6.77002 14.4197 6.46384 13.9088 6.19871 13.246C5.70202 12.0043 5.37561 10.2951 5.33715 8.38095H10.6628Z" fill="white"/>
</svg>
