<svg width="77" height="36" viewBox="0 0 77 36" fill="none" xmlns="http://www.w3.org/2000/svg">
<path d="M44.9734 12.2346C44.9394 11.9793 44.826 11.7979 44.6331 11.6901C44.4403 11.5767 44.1993 11.5143 43.91 11.5029C43.8079 11.5029 43.7002 11.5114 43.5867 11.5284C43.479 11.5455 43.3769 11.5795 43.2805 11.6305C43.184 11.6816 43.1046 11.7496 43.0423 11.8347C42.9799 11.9198 42.9487 12.0247 42.9487 12.1495C42.943 12.2799 42.9742 12.3905 43.0423 12.4813C43.116 12.572 43.2124 12.6458 43.3315 12.7025C43.4166 12.7422 43.5073 12.779 43.6037 12.8131C43.7058 12.8414 43.8051 12.8698 43.9015 12.8981C43.9979 12.9208 44.0915 12.9407 44.1823 12.9577C44.273 12.9747 44.3524 12.9917 44.4205 13.0087C44.6643 13.0598 44.8997 13.1193 45.1266 13.1874C45.3534 13.2555 45.5548 13.349 45.7306 13.4681C45.9064 13.5873 46.0482 13.7461 46.156 13.9446C46.2637 14.1431 46.3205 14.4011 46.3261 14.7187C46.3261 15.0647 46.2609 15.3596 46.1305 15.6035C46 15.8474 45.8242 16.0431 45.603 16.1905C45.3931 16.338 45.1493 16.4458 44.8714 16.5138C44.5934 16.5762 44.2872 16.6017 43.9526 16.5904C43.6293 16.5847 43.3258 16.5422 43.0423 16.4628C42.7587 16.3777 42.5063 16.2558 42.2851 16.0969C42.0696 15.9381 41.8966 15.7396 41.7661 15.5014C41.6357 15.2632 41.562 14.9825 41.5449 14.6592H42.804C42.8381 14.8067 42.8948 14.9286 42.9742 15.025C43.0536 15.1214 43.1472 15.2008 43.2549 15.2632C43.3627 15.3256 43.4818 15.371 43.6123 15.3993C43.7484 15.4277 43.8845 15.4447 44.0206 15.4504C44.1624 15.4561 44.2985 15.4504 44.429 15.4334C44.5594 15.4164 44.6728 15.3852 44.7693 15.3398C44.8714 15.2887 44.9508 15.2207 45.0075 15.1356C45.0642 15.0505 45.0925 14.9428 45.0925 14.8123C45.0925 14.6308 45.0358 14.4975 44.9224 14.4125C44.8146 14.3274 44.6955 14.2678 44.5651 14.2338C44.4743 14.2111 44.3921 14.1913 44.3184 14.1743C44.2503 14.1516 44.1823 14.1346 44.1142 14.1232C44.0461 14.1062 43.9752 14.0892 43.9015 14.0722C43.8278 14.0552 43.7427 14.0353 43.6463 14.0126C43.4308 13.9559 43.2067 13.8935 42.9742 13.8255C42.7473 13.7517 42.5432 13.6496 42.3617 13.5192C42.1405 13.3661 41.9732 13.1704 41.8597 12.9322C41.752 12.694 41.7037 12.4302 41.7151 12.141C41.7321 11.8007 41.8115 11.5199 41.9533 11.2987C42.0951 11.0719 42.2766 10.8932 42.4978 10.7628C42.719 10.6323 42.9629 10.5416 43.2294 10.4905C43.496 10.4395 43.7626 10.4168 44.0291 10.4225C44.324 10.4282 44.5963 10.4707 44.8458 10.5501C45.1011 10.6238 45.3222 10.7344 45.5094 10.8819C45.7022 11.0293 45.8582 11.2165 45.9773 11.4434C46.0964 11.6702 46.1702 11.934 46.1985 12.2346H44.9734Z" fill="white"/>
<path d="M51.6304 10.499V11.5965H48.5592V13.0002H51.239V14.0977H48.5592V15.4334H51.6304V16.5223H47.3256V10.499H51.6304Z" fill="white"/>
<path d="M53.5121 13.4937C53.5121 13.7489 53.5433 13.9956 53.6057 14.2338C53.6738 14.472 53.773 14.6819 53.9035 14.8634C54.0396 15.0449 54.2097 15.1923 54.4139 15.3058C54.6238 15.4135 54.8733 15.4674 55.1626 15.4674C55.5256 15.4674 55.8233 15.388 56.0559 15.2292C56.2941 15.0647 56.4415 14.8378 56.4982 14.5486H57.6893C57.6609 14.8832 57.573 15.1781 57.4255 15.4334C57.2781 15.6829 57.0881 15.8928 56.8556 16.0629C56.623 16.2331 56.3593 16.3607 56.0644 16.4458C55.7694 16.5308 55.4632 16.5734 55.1456 16.5734C54.6748 16.5734 54.2579 16.4968 53.895 16.3437C53.5376 16.1905 53.2342 15.9778 52.9847 15.7056C52.7408 15.4334 52.5565 15.1101 52.4317 14.7358C52.3069 14.3614 52.2445 13.9502 52.2445 13.5022C52.2445 13.0655 52.3069 12.6599 52.4317 12.2856C52.5621 11.9056 52.7521 11.5795 53.0017 11.3073C53.2512 11.0293 53.5547 10.8138 53.912 10.6607C54.275 10.5019 54.6918 10.4225 55.1626 10.4225C55.4915 10.4225 55.8006 10.4622 56.0899 10.5416C56.3791 10.621 56.6372 10.7429 56.8641 10.9074C57.0909 11.0719 57.2753 11.2846 57.417 11.5455C57.5645 11.8007 57.6553 12.107 57.6893 12.4643H56.4982C56.4359 12.175 56.2884 11.9453 56.0559 11.7752C55.8233 11.605 55.5256 11.5199 55.1626 11.5199C54.8733 11.5199 54.6238 11.5738 54.4139 11.6816C54.2097 11.7837 54.0396 11.9255 53.9035 12.107C53.773 12.2884 53.6738 12.5011 53.6057 12.745C53.5433 12.9832 53.5121 13.2328 53.5121 13.4937Z" fill="white"/>
<path d="M61.3204 10.4225C61.7798 10.4225 62.1939 10.4962 62.5625 10.6437C62.9312 10.7911 63.2431 11.001 63.4983 11.2732C63.7536 11.5398 63.9492 11.8602 64.0853 12.2346C64.2215 12.6089 64.2895 13.0229 64.2895 13.4767C64.2895 13.919 64.2215 14.3302 64.0853 14.7102C63.9492 15.0902 63.7536 15.4192 63.4983 15.6971C63.2431 15.975 62.9283 16.1934 62.554 16.3522C62.1854 16.5053 61.7657 16.579 61.2949 16.5734C60.8242 16.5734 60.4045 16.4968 60.0358 16.3437C59.6728 16.1849 59.3637 15.9693 59.1085 15.6971C58.8589 15.4249 58.6661 15.1016 58.53 14.7272C58.3995 14.3529 58.3343 13.9446 58.3343 13.5022C58.3343 13.0484 58.4024 12.6344 58.5385 12.2601C58.6803 11.8801 58.8788 11.554 59.134 11.2817C59.3949 11.0095 59.7097 10.7996 60.0783 10.6522C60.447 10.499 60.861 10.4225 61.3204 10.4225ZM59.6019 13.4852C59.6019 13.7461 59.636 13.9956 59.704 14.2338C59.7777 14.4664 59.8827 14.6734 60.0188 14.8549C60.1606 15.0364 60.3392 15.1838 60.5548 15.2972C60.7703 15.405 61.0227 15.4617 61.3119 15.4674C61.5898 15.4731 61.8365 15.4249 62.0521 15.3228C62.2676 15.215 62.4462 15.0704 62.588 14.8889C62.7298 14.7017 62.8376 14.489 62.9113 14.2508C62.9851 14.007 63.0219 13.7546 63.0219 13.4937C63.0219 13.2384 62.9851 12.9917 62.9113 12.7535C62.8433 12.5153 62.7383 12.3055 62.5965 12.124C62.4604 11.9368 62.2846 11.7893 62.0691 11.6816C61.8536 11.5738 61.6012 11.5199 61.3119 11.5199C61.0283 11.5199 60.7788 11.5738 60.5633 11.6816C60.3477 11.7893 60.1691 11.934 60.0273 12.1155C59.8855 12.297 59.7777 12.5068 59.704 12.745C59.636 12.9776 59.6019 13.2243 59.6019 13.4852Z" fill="white"/>
<path d="M66.4203 10.499L69.2788 14.5316V10.499H70.4869V16.5223H69.3043L66.4458 12.5068V16.5223H65.2378V10.499H66.4203Z" fill="white"/>
<path d="M71.7596 16.5223V10.499H73.98C74.2693 10.499 74.5529 10.5246 74.8308 10.5756C75.1087 10.621 75.3753 10.7117 75.6305 10.8479C76.0842 11.0804 76.4245 11.4235 76.6514 11.8773C76.8839 12.331 77.0002 12.8783 77.0002 13.5192C77.0002 14.489 76.7478 15.232 76.243 15.7481C75.7439 16.2643 75.0094 16.5223 74.0396 16.5223H71.7596ZM74.0481 15.4334C74.1275 15.4334 74.2126 15.4277 74.3033 15.4164C74.3941 15.405 74.4848 15.3908 74.5756 15.3738C74.6663 15.3511 74.7514 15.3256 74.8308 15.2972C74.9102 15.2689 74.9782 15.2377 75.035 15.2037C75.2675 15.0449 75.4405 14.8208 75.5539 14.5316C75.673 14.2367 75.7326 13.8992 75.7326 13.5192C75.7326 13.2186 75.6985 12.9464 75.6305 12.7025C75.5624 12.4586 75.4575 12.2516 75.3157 12.0814C75.1569 11.8943 74.9527 11.7667 74.7032 11.6986C74.4593 11.6305 74.2182 11.5965 73.98 11.5965H72.9932V15.4334H74.0481Z" fill="white"/>
<path d="M42.7445 25.0806L41.2132 19.0574H42.6169L43.6037 23.6769L44.5311 19.0574H46.19L47.0918 23.6769L48.0191 19.0574H49.3463L47.917 25.0806H46.2836L45.3393 20.3845L44.4034 25.0806H42.7445Z" fill="white"/>
<path d="M52.6634 18.9808C53.1228 18.9808 53.5369 19.0545 53.9055 19.202C54.2742 19.3494 54.5861 19.5593 54.8413 19.8315C55.0966 20.0981 55.2922 20.4185 55.4284 20.7929C55.5645 21.1672 55.6325 21.5812 55.6325 22.035C55.6325 22.4773 55.5645 22.8885 55.4284 23.2685C55.2922 23.6485 55.0966 23.9775 54.8413 24.2554C54.5861 24.5333 54.2713 24.7517 53.897 24.9105C53.5284 25.0636 53.1087 25.1373 52.6379 25.1317C52.1672 25.1317 51.7475 25.0551 51.3788 24.902C51.0158 24.7432 50.7067 24.5276 50.4515 24.2554C50.202 23.9832 50.0091 23.6599 49.873 23.2856C49.7426 22.9112 49.6773 22.5029 49.6773 22.0605C49.6773 21.6068 49.7454 21.1927 49.8815 20.8184C50.0233 20.4384 50.2218 20.1123 50.477 19.84C50.7379 19.5678 51.0527 19.3579 51.4214 19.2105C51.79 19.0574 52.204 18.9808 52.6634 18.9808ZM50.9449 22.0435C50.9449 22.3044 50.979 22.5539 51.047 22.7921C51.1208 23.0247 51.2257 23.2317 51.3618 23.4132C51.5036 23.5947 51.6823 23.7421 51.8978 23.8556C52.1133 23.9633 52.3657 24.02 52.6549 24.0257C52.9328 24.0314 53.1796 23.9832 53.3951 23.8811C53.6106 23.7733 53.7893 23.6287 53.9311 23.4472C54.0728 23.26 54.1806 23.0473 54.2543 22.8091C54.3281 22.5653 54.3649 22.3129 54.3649 22.052C54.3649 21.7968 54.3281 21.55 54.2543 21.3118C54.1863 21.0736 54.0813 20.8638 53.9396 20.6823C53.8034 20.4951 53.6276 20.3477 53.4121 20.2399C53.1966 20.1321 52.9442 20.0782 52.6549 20.0782C52.3714 20.0782 52.1218 20.1321 51.9063 20.2399C51.6908 20.3477 51.5121 20.4923 51.3703 20.6738C51.2285 20.8553 51.1208 21.0651 51.047 21.3033C50.979 21.5359 50.9449 21.7826 50.9449 22.0435Z" fill="white"/>
<path d="M58.9799 19.0574C59.1387 19.0574 59.2975 19.063 59.4563 19.0744C59.6151 19.08 59.7711 19.0999 59.9242 19.1339C60.0773 19.168 60.2248 19.219 60.3666 19.2871C60.5141 19.3494 60.6502 19.4374 60.775 19.5508C60.9735 19.7323 61.1153 19.9506 61.2003 20.2059C61.2854 20.4554 61.3251 20.7106 61.3194 20.9715C61.3138 21.3232 61.2514 21.6209 61.1323 21.8648C61.0188 22.1087 60.8629 22.3157 60.6644 22.4859C60.4829 22.6333 60.273 22.7382 60.0348 22.8006L61.3705 25.0806H59.9923L58.7757 22.9197H57.8144V25.0806H56.5808V19.0574H58.9799ZM58.9884 21.8818C59.1415 21.8818 59.2862 21.8676 59.4223 21.8393C59.5584 21.8109 59.6747 21.7656 59.7711 21.7032C59.8732 21.6351 59.9526 21.5472 60.0093 21.4394C60.0717 21.326 60.1057 21.1842 60.1114 21.0141C60.117 20.8326 60.0915 20.6851 60.0348 20.5717C59.9781 20.4582 59.8987 20.3703 59.7966 20.3079C59.7002 20.2456 59.5839 20.2059 59.4478 20.1888C59.3173 20.1662 59.1727 20.1548 59.0139 20.1548H57.8144V21.8818H58.9884Z" fill="white"/>
<path d="M63.58 23.9917H66.532V25.0806H62.3549V19.0574H63.58V23.9917Z" fill="white"/>
<path d="M67.4062 25.0806V19.0574H69.6266C69.9159 19.0574 70.1995 19.0829 70.4774 19.1339C70.7553 19.1793 71.0218 19.27 71.2771 19.4062C71.7308 19.6387 72.0711 19.9818 72.298 20.4356C72.5305 20.8893 72.6468 21.4366 72.6468 22.0775C72.6468 23.0473 72.3944 23.7903 71.8896 24.3064C71.3905 24.8226 70.656 25.0806 69.6862 25.0806H67.4062ZM69.6947 23.9917C69.7741 23.9917 69.8592 23.986 69.9499 23.9747C70.0406 23.9633 70.1314 23.9491 70.2221 23.9321C70.3129 23.9094 70.398 23.8839 70.4774 23.8556C70.5568 23.8272 70.6248 23.796 70.6815 23.762C70.9141 23.6032 71.0871 23.3791 71.2005 23.0899C71.3196 22.795 71.3792 22.4575 71.3792 22.0775C71.3792 21.7769 71.3451 21.5047 71.2771 21.2608C71.209 21.0169 71.1041 20.8099 70.9623 20.6397C70.8035 20.4526 70.5993 20.325 70.3498 20.2569C70.1059 20.1888 69.8648 20.1548 69.6266 20.1548H68.6398V23.9917H69.6947Z" fill="white"/>
<path fill-rule="evenodd" clip-rule="evenodd" d="M17.9487 34.7681C27.2378 34.7681 34.7681 27.2378 34.7681 17.9487C34.7681 8.65954 27.2378 1.12922 17.9487 1.12922C8.65954 1.12922 1.12922 8.65954 1.12922 17.9487C1.12922 27.2378 8.65954 34.7681 17.9487 34.7681ZM17.9487 35.8973C27.8614 35.8973 35.8973 27.8614 35.8973 17.9487C35.8973 8.03589 27.8614 0 17.9487 0C8.03589 0 0 8.03589 0 17.9487C0 27.8614 8.03589 35.8973 17.9487 35.8973Z" fill="white"/>
<path d="M4.10134 13.5507V12.0352H11.7979V13.5507H10.0743C9.50377 13.5507 9.42056 13.8677 9.45028 14.0262L13.5511 24.516L16.7308 16.7006C16.5426 16.2252 16.1008 15.1019 15.8393 14.4125C15.5778 13.723 15.0766 13.5507 14.8587 13.5507H13.6997V12.0352H21.3665V13.5507H19.7321C19.328 13.5507 19.2468 13.8677 19.2567 14.0262L23.2089 24.516C24.4768 21.1779 27.0423 14.4065 27.1612 14.0262C27.2801 13.6458 26.8145 13.5507 26.5669 13.5507H25.0811V12.0352H31.7672V13.5507H30.7272C30.014 13.5507 29.6574 14.1252 29.5682 14.4125L23.9221 28.914H21.4854L17.8303 19.91L14.2643 28.914H11.7979C10.0743 24.4764 6.53808 15.3634 6.18148 14.4125C5.82488 13.4615 4.64614 13.4417 4.10134 13.5507Z" fill="white"/>
<path d="M17.3046 25.5331C16.1746 25.6744 16.1611 26.6177 16.2957 27.0717H17.0019C16.901 26.315 17.2037 26.1132 17.6829 26.0628C18.1622 26.0124 18.7675 26.2898 18.4144 26.9204C18.1319 27.4248 16.817 28.2572 16.1948 28.6103V29.0895H18.6162V29.2408H19.2972L19.5242 27.9293H18.7675V28.4842H17.5064C19.7764 27.5005 19.4233 26.4664 19.2972 26.1637C19.1711 25.861 18.717 25.3566 17.3046 25.5331Z" fill="white"/>
</svg>
