<svg width="20" height="21" viewBox="0 0 20 21" fill="none" xmlns="http://www.w3.org/2000/svg">
<g clip-path="url(#clip0_232_2400)">
<path d="M19.8223 15.0625C19.4311 15.5518 18.4736 15.8998 18.4736 15.8998L11.3536 18.4338V16.5649L16.5936 14.7158C17.1886 14.5052 17.2798 14.2055 16.7961 14.0495C16.3136 13.8922 15.4398 13.938 14.8461 14.1485L11.3536 15.3672V13.4277L11.5548 13.3608C11.5548 13.3608 12.5636 13.0066 13.9823 12.8506C15.4011 12.6958 17.1386 12.8716 18.5023 13.3831C20.0398 13.8662 20.2123 14.5746 19.8223 15.0625ZM12.0311 11.8821V7.10143C12.0311 6.54038 11.9273 6.02393 11.3961 5.87778C10.9886 5.74774 10.7361 6.12301 10.7361 6.68281V18.6517L7.47857 17.6275V3.35742C8.86357 3.61255 10.8811 4.21447 11.9661 4.57735C14.7248 5.5149 15.6598 6.68281 15.6598 9.31464C15.6598 11.8796 14.0623 12.8518 12.0311 11.8808V11.8821ZM1.50107 16.3717C-0.076426 15.9283 -0.338926 15.0118 0.379824 14.4842C1.04482 13.9962 2.17482 13.6296 2.17482 13.6296L6.84608 11.9824V13.8587L3.48357 15.0514C2.89107 15.2619 2.79982 15.5604 3.28232 15.7177C3.76482 15.8738 4.63857 15.8292 5.23232 15.6186L6.84482 15.0378V16.7172L6.52357 16.7704C4.84134 17.0403 3.1182 16.9031 1.50107 16.3704V16.3717Z" fill="white"/>
</g>
<defs>
<clipPath id="clip0_232_2400">
<rect width="20" height="19.8161" fill="white" transform="translate(0 0.880371)"/>
</clipPath>
</defs>
</svg>
