<svg width="988" height="86" viewBox="0 0 988 86" fill="none" xmlns="http://www.w3.org/2000/svg">
<path d="M47.606 28.0677L46.6173 28.2175L46.7461 29.0677H47.606V28.0677ZM43.4633 22.0312L42.9283 22.876L42.9385 22.8825L42.9488 22.8887L43.4633 22.0312ZM27.1293 21.2026L26.6966 20.3011H26.6966L27.1293 21.2026ZM27.4844 29.7247L27.0905 30.6439L27.4844 29.7247ZM37.1901 32.8022L36.9391 33.7702L36.9511 33.7732L37.1901 32.8022ZM44.8837 34.696L45.1315 33.7271L45.1227 33.7249L44.8837 34.696ZM54.471 37.5367L54.1474 38.4828L54.1621 38.4879L54.177 38.4924L54.471 37.5367ZM62.5197 41.561L61.9153 42.3577L62.5197 41.561ZM67.9644 48.3076L67.0648 48.7446L67.0699 48.7549L67.9644 48.3076ZM70.2132 58.8419H71.2132V58.8237L71.2126 58.8056L70.2132 58.8419ZM67.2542 71.5067L66.3847 71.0127L66.381 71.0193L67.2542 71.5067ZM59.679 79.7921L60.2385 80.6209H60.2385L59.679 79.7921ZM48.908 84.5266L49.1414 85.499L49.155 85.4956L48.908 84.5266ZM24.8804 84.6449L24.6656 85.6216L24.6696 85.6224L24.8804 84.6449ZM13.636 79.9104L13.0857 80.7454L13.0943 80.751L13.636 79.9104ZM4.75882 70.7965L3.90597 71.3187L3.91225 71.3289L3.91878 71.339L4.75882 70.7965ZM0.37941 56.7114V55.7114H-0.725578L-0.615627 56.8109L0.37941 56.7114ZM21.9214 56.7114L22.8954 56.4849L22.7155 55.7114H21.9214V56.7114ZM27.4844 63.9315L27.0469 64.8308L27.0563 64.8352L27.4844 63.9315ZM41.5695 65.8253L41.6936 66.8176L41.5695 65.8253ZM45.0021 64.9967L45.361 65.9301L45.3786 65.9233L45.396 65.9159L45.0021 64.9967ZM47.606 63.103L46.8627 62.434L46.8433 62.4556L46.8252 62.4783L47.606 63.103ZM46.4224 56.0012L45.8677 56.8333L45.894 56.8508L45.9214 56.8666L46.4224 56.0012ZM40.2676 53.8707L40.058 54.8485L40.0758 54.8523L40.0938 54.8555L40.2676 53.8707ZM33.6393 52.4503L33.8488 51.4725L33.8453 51.4718L33.6393 52.4503ZM20.9745 49.0178L21.2964 48.071L20.9745 49.0178ZM11.3871 44.2833L10.7832 45.0805L10.7913 45.0864L11.3871 44.2833ZM5.23227 36.8265L4.33784 37.2737L5.23227 36.8265ZM2.98338 25.1086L1.9856 25.0421L1.98338 25.0753V25.1086H2.98338ZM6.53426 13.2724L7.3727 13.8174L6.53426 13.2724ZM14.2278 5.57881L13.6909 4.73514L13.6882 4.73693L14.2278 5.57881ZM25.1172 1.1994L24.9365 0.215842L24.9329 0.216523L25.1172 1.1994ZM37.3085 0.134133L37.3307 -0.86562L37.3196 -0.865867H37.3085V0.134133ZM47.606 1.79121L47.3103 2.74649L47.3237 2.75064L47.3372 2.7544L47.606 1.79121ZM56.6016 5.93389L56.0298 6.75429L56.0334 6.75679L56.6016 5.93389ZM64.5319 14.9294L63.6489 15.3991L63.6532 15.4069L64.5319 14.9294ZM68.3195 28.0677V29.0677H69.4329L69.3137 27.9606L68.3195 28.0677ZM48.5947 27.9179C48.1531 25.0031 46.5866 22.7389 43.9778 21.1737L42.9488 22.8887C45.0746 24.1641 46.2699 25.9243 46.6173 28.2175L48.5947 27.9179ZM43.9984 21.1864C41.4212 19.5541 38.0993 18.7823 34.1127 18.7823V20.7823C37.8591 20.7823 40.771 21.5097 42.9283 22.876L43.9984 21.1864ZM34.1127 18.7823C31.3132 18.7823 28.8314 19.2764 26.6966 20.3011L27.5621 22.1042C29.3727 21.2351 31.5464 20.7823 34.1127 20.7823V18.7823ZM26.6966 20.3011C25.5949 20.8299 24.7034 21.5224 24.0887 22.4077C23.4681 23.3013 23.1703 24.3332 23.1703 25.4637H25.1703C25.1703 24.7004 25.3656 24.0752 25.7314 23.5485C26.103 23.0134 26.691 22.5223 27.5621 22.1042L26.6966 20.3011ZM23.1703 25.4637C23.1703 26.6204 23.5131 27.6679 24.2094 28.5632C24.8948 29.4444 25.8805 30.1253 27.0905 30.6439L27.8783 28.8056C26.8788 28.3772 26.2076 27.8746 25.7881 27.3354C25.3798 26.8104 25.1703 26.2007 25.1703 25.4637H23.1703ZM27.0905 30.6439C29.3696 31.6206 32.6623 32.6613 36.9392 33.7702L37.4411 31.8342C33.1959 30.7336 30.0181 29.7226 27.8783 28.8056L27.0905 30.6439ZM36.9511 33.7732L44.6447 35.667L45.1227 33.7249L37.4291 31.8312L36.9511 33.7732ZM44.6359 35.6648C48.006 36.5269 51.1763 37.4664 54.1474 38.4828L54.7947 36.5905C51.7688 35.5553 48.5475 34.601 45.1315 33.7272L44.6359 35.6648ZM54.177 38.4924C57.1559 39.409 59.7309 40.7005 61.9153 42.3577L63.1241 40.7643C60.7318 38.9495 57.9411 37.5581 54.7651 36.5809L54.177 38.4924ZM61.9153 42.3577C64.0698 43.9921 65.7873 46.1142 67.0649 48.7445L68.8639 47.8707C67.4586 44.9775 65.5463 42.6018 63.1241 40.7643L61.9153 42.3577ZM67.0699 48.7549C68.3254 51.2659 69.0591 54.6221 69.2139 58.8782L71.2126 58.8056C71.0517 54.3817 70.2862 50.7152 68.8588 47.8604L67.0699 48.7549ZM69.2132 58.8419C69.2132 63.6818 68.2533 67.724 66.3847 71.0127L68.1236 72.0007C70.2005 68.3455 71.2132 63.9444 71.2132 58.8419H69.2132ZM66.381 71.0193C64.562 74.2784 62.1432 76.9222 59.1195 78.9632L60.2385 80.6209C63.5274 78.4009 66.1588 75.521 68.1274 71.994L66.381 71.0193ZM59.1195 78.9632C56.0668 81.0238 52.584 82.5576 48.661 83.5575L49.155 85.4956C53.2807 84.4439 56.9785 82.8213 60.2385 80.6209L59.1195 78.9632ZM48.6746 83.5542C44.8065 84.4825 40.8606 84.9469 36.835 84.9469V86.9469C41.016 86.9469 45.1187 86.4644 49.1414 85.4989L48.6746 83.5542ZM36.835 84.9469C32.9635 84.9469 29.0493 84.5211 25.0913 83.6674L24.6696 85.6224C28.7602 86.5047 32.8157 86.9469 36.835 86.9469V84.9469ZM25.0953 83.6683C21.2713 82.827 17.6332 81.2967 14.1777 79.0698L13.0943 80.751C16.7405 83.1008 20.5987 84.7269 24.6656 85.6216L25.0953 83.6683ZM14.1863 79.0755C10.8396 76.8697 7.97618 73.935 5.59886 70.254L3.91878 71.339C6.43377 75.2332 9.48843 78.3745 13.0857 80.7454L14.1863 79.0755ZM5.61167 70.2744C3.33867 66.5618 1.91512 62.0186 1.37445 56.6119L-0.615627 56.8109C-0.0515881 62.4513 1.44447 67.2982 3.90597 71.3187L5.61167 70.2744ZM0.37941 57.7114H21.9214V55.7114H0.37941V57.7114ZM20.9474 56.9379C21.799 60.6001 23.8343 63.2678 27.0469 64.8307L27.9219 63.0322C25.2953 61.7544 23.6219 59.6088 22.8954 56.4849L20.9474 56.9379ZM27.0563 64.8352C30.2116 66.3298 33.8345 67.062 37.9003 67.062V65.062C34.0753 65.062 30.7542 64.3738 27.9125 63.0277L27.0563 64.8352ZM37.9003 67.062C39.1283 67.062 40.3929 66.9801 41.6936 66.8176L41.4455 64.833C40.2211 64.9861 39.0395 65.062 37.9003 65.062V67.062ZM41.6936 66.8176C43.0242 66.6512 44.2488 66.3579 45.361 65.9301L44.6431 64.0634C43.7037 64.4247 42.6399 64.6837 41.4455 64.833L41.6936 66.8176ZM45.396 65.9159C46.6234 65.3899 47.635 64.6675 48.3869 63.7276L46.8252 62.4783C46.3145 63.1166 45.5902 63.6567 44.6081 64.0776L45.396 65.9159ZM48.3493 63.7719C49.2649 62.7546 49.6713 61.4282 49.6713 59.9072H47.6713C47.6713 61.069 47.3675 61.8732 46.8627 62.434L48.3493 63.7719ZM49.6713 59.9072C49.6713 57.8153 48.7323 56.183 46.9234 55.1358L45.9214 56.8666C47.111 57.5554 47.6713 58.5271 47.6713 59.9072H49.6713ZM46.9771 55.1692C45.3935 54.1134 43.1885 53.3707 40.4413 52.8859L40.0938 54.8555C42.7124 55.3176 44.6106 55.9952 45.8677 56.8333L46.9771 55.1692ZM40.4771 52.8929L33.8488 51.4725L33.4297 53.4281L40.058 54.8485L40.4771 52.8929ZM33.8453 51.4718C29.3828 50.5323 25.2002 49.3983 21.2964 48.071L20.6526 49.9646C24.6396 51.3202 28.9002 52.4746 33.4332 53.4289L33.8453 51.4718ZM21.2964 48.071C17.4157 46.7516 14.3215 45.2153 11.983 43.4802L10.7913 45.0864C13.3451 46.9812 16.6424 48.6011 20.6526 49.9646L21.2964 48.071ZM11.991 43.4862C9.51272 41.6088 7.55912 39.2441 6.1267 36.3793L4.33784 37.2737C5.90394 40.4059 8.05357 43.0125 10.7833 45.0804L11.991 43.4862ZM6.1267 36.3793C4.71847 33.5628 3.98338 29.9025 3.98338 25.3453H1.98338C1.98338 30.0993 2.74755 34.0931 4.33784 37.2737L6.1267 36.3793ZM3.98338 25.3453V25.1086H1.98338V25.3453H3.98338ZM3.98117 25.1751C4.28835 20.5675 5.43544 16.7978 7.3727 13.8174L5.69581 12.7274C3.52984 16.0596 2.30969 20.1807 1.9856 25.0421L3.98117 25.1751ZM7.3727 13.8174C9.3493 10.7764 11.8132 8.31445 14.7675 6.42069L13.6882 4.73693C10.4876 6.78858 7.82244 9.45564 5.69581 12.7274L7.3727 13.8174ZM14.7647 6.42247C18.1365 4.27679 21.6475 2.86738 25.3014 2.18227L24.9329 0.216523C21.0116 0.951754 17.2631 2.46195 13.6909 4.73514L14.7647 6.42247ZM25.2978 2.18294C29.1 1.48458 33.103 1.13413 37.3085 1.13413V-0.865867C32.9919 -0.865867 28.8673 -0.506141 24.9365 0.215849L25.2978 2.18294ZM37.2863 1.13389C40.7466 1.21078 44.0869 1.74877 47.3103 2.74649L47.9017 0.835921C44.4968 -0.217977 40.9721 -0.7847 37.3307 -0.86562L37.2863 1.13389ZM47.3372 2.7544C50.6338 3.67437 53.5276 5.01035 56.0298 6.75429L57.1734 5.11349C54.4676 3.22764 51.3644 1.80183 47.8748 0.828011L47.3372 2.7544ZM56.0334 6.75679C59.2102 8.95027 61.7481 11.8253 63.649 15.3991L65.4147 14.4598C63.3702 10.6162 60.6213 7.49418 57.1698 5.11099L56.0334 6.75679ZM63.6532 15.4069C65.5502 18.8973 66.7835 23.1444 67.3252 28.1747L69.3137 27.9606C68.7507 22.7329 67.459 18.2211 65.4105 14.4519L63.6532 15.4069ZM68.3195 27.0677H47.606V29.0677H68.3195V27.0677ZM145.851 1.1994H146.851V0.199396H145.851V1.1994ZM145.851 21.0843V22.0843H146.851V21.0843H145.851ZM104.07 21.0843V20.0843H103.07V21.0843H104.07ZM104.07 33.8674H103.07V34.8674H104.07V33.8674ZM138.513 33.8674H139.513V32.8674H138.513V33.8674ZM138.513 52.8054V53.8054H139.513V52.8054H138.513ZM104.07 52.8054V51.8054H103.07V52.8054H104.07ZM104.07 65.2335H103.07V66.2335H104.07V65.2335ZM145.851 65.2335H146.851V64.2335H145.851V65.2335ZM145.851 85V86H146.851V85H145.851ZM82.6459 85H81.6459V86H82.6459V85ZM82.6459 1.1994V0.199396H81.6459V1.1994H82.6459ZM144.851 1.1994V21.0843H146.851V1.1994H144.851ZM145.851 20.0843H104.07V22.0843H145.851V20.0843ZM103.07 21.0843V33.8674H105.07V21.0843H103.07ZM104.07 34.8674H138.513V32.8674H104.07V34.8674ZM137.513 33.8674V52.8054H139.513V33.8674H137.513ZM138.513 51.8054H104.07V53.8054H138.513V51.8054ZM103.07 52.8054V65.2335H105.07V52.8054H103.07ZM104.07 66.2335H145.851V64.2335H104.07V66.2335ZM144.851 65.2335V85H146.851V65.2335H144.851ZM145.851 84H82.6459V86H145.851V84ZM83.6459 85V1.1994H81.6459V85H83.6459ZM82.6459 2.1994H145.851V0.199396H82.6459V2.1994ZM175.668 51.03L174.699 51.279L174.701 51.2859L175.668 51.03ZM178.982 58.3685L178.154 58.93L178.166 58.9471L178.178 58.9637L178.982 58.3685ZM185.137 63.6948L184.646 64.5663L184.657 64.5722L184.668 64.5779L185.137 63.6948ZM205.613 62.6295L206.199 63.4402L205.613 62.6295ZM211.176 53.8707V52.8707H210.38L210.202 53.6473L211.176 53.8707ZM231.89 53.8707L232.887 53.9451L232.967 52.8707H231.89V53.8707ZM227.984 67.8374L227.107 67.3562L227.984 67.8374ZM219.462 77.8983L218.85 77.1069L218.842 77.1138L219.462 77.8983ZM207.744 83.9347L207.453 82.9778L207.449 82.9793L207.744 83.9347ZM176.615 82.9878L176.256 83.9212L176.26 83.923L176.615 82.9878ZM163.476 74.4657L162.754 75.1574L162.762 75.1652L163.476 74.4657ZM155.309 60.9724L154.366 61.3053L154.368 61.3097L155.309 60.9724ZM155.428 25.227L156.365 25.5766L155.428 25.227ZM163.831 11.7337L164.546 12.4331L163.831 11.7337ZM176.97 3.21155L177.329 4.14498L177.341 4.14003L176.97 3.21155ZM207.626 2.14629L207.325 3.10015L207.33 3.10169L207.626 2.14629ZM218.988 8.18277L218.35 8.95253L218.36 8.96095L218.371 8.96909L218.988 8.18277ZM227.037 18.1252L226.146 18.5794L226.15 18.5863L226.153 18.5931L227.037 18.1252ZM230.943 32.3287V33.3287H232.034L231.939 32.2421L230.943 32.3287ZM210.703 32.3287L209.733 32.5713L209.922 33.3287H210.703V32.3287ZM205.258 23.5699L204.625 24.3438L204.638 24.3543L204.651 24.3642L205.258 23.5699ZM185.018 22.3863L185.466 23.2807L185.477 23.2752L185.487 23.2694L185.018 22.3863ZM178.863 27.4759L178.06 26.8806L178.053 26.8904L178.046 26.9004L178.863 27.4759ZM175.549 34.696L174.583 34.4401L174.579 34.4535L174.576 34.4669L175.549 34.696ZM173.602 42.863C173.602 45.635 173.969 48.441 174.699 51.279L176.636 50.7809C175.946 48.0954 175.602 45.4567 175.602 42.863H173.602ZM174.701 51.2859C175.439 54.0734 176.589 56.6236 178.154 58.93L179.809 57.807C178.376 55.6945 177.317 53.3523 176.634 50.7741L174.701 51.2859ZM178.178 58.9637C179.848 61.2175 182.01 63.0834 184.646 64.5663L185.627 62.8232C183.213 61.4654 181.272 59.7805 179.785 57.7732L178.178 58.9637ZM184.668 64.5779C187.371 66.014 190.619 66.7069 194.369 66.7069V64.7069C190.86 64.7069 187.953 64.0584 185.606 62.8116L184.668 64.5779ZM194.369 66.7069C199.166 66.7069 203.14 65.6496 206.199 63.4402L205.028 61.8188C202.406 63.7126 198.883 64.7069 194.369 64.7069V66.7069ZM206.199 63.4402C209.258 61.2307 211.235 58.0905 212.151 54.0941L210.202 53.6473C209.382 57.2261 207.65 59.9251 205.028 61.8188L206.199 63.4402ZM211.176 54.8707H231.89V52.8707H211.176V54.8707ZM230.893 53.7963C230.507 58.9624 229.238 63.4753 227.107 67.3562L228.86 68.3187C231.149 64.151 232.484 59.3527 232.887 53.9451L230.893 53.7963ZM227.107 67.3562C224.961 71.2657 222.209 74.512 218.85 77.107L220.073 78.6895C223.659 75.9187 226.588 72.4578 228.86 68.3187L227.107 67.3562ZM218.842 77.1138C215.553 79.714 211.761 81.6703 207.453 82.9779L208.034 84.8916C212.565 83.5163 216.584 81.4483 220.082 78.6827L218.842 77.1138ZM207.449 82.9793C203.208 84.29 198.771 84.9469 194.132 84.9469V86.9469C198.963 86.9469 203.6 86.2624 208.039 84.8901L207.449 82.9793ZM194.132 84.9469C187.764 84.9469 182.047 83.9762 176.969 82.0527L176.26 83.923C181.598 85.9449 187.56 86.9469 194.132 86.9469V84.9469ZM176.974 82.0545C171.97 80.1302 167.715 77.3664 164.191 73.7663L162.762 75.1652C166.498 78.9825 171.001 81.9 176.256 83.9212L176.974 82.0545ZM164.199 73.7742C160.754 70.1761 158.102 65.8024 156.251 60.6352L154.368 61.3097C156.305 66.7162 159.097 71.338 162.754 75.1573L164.199 73.7742ZM156.252 60.6396C154.402 55.3968 153.469 49.5146 153.469 42.9813H151.469C151.469 49.7047 152.429 55.8166 154.366 61.3052L156.252 60.6396ZM153.469 42.9813C153.469 36.5325 154.44 30.7352 156.365 25.5766L154.491 24.8774C152.47 30.2925 151.469 36.3314 151.469 42.9813H153.469ZM156.365 25.5766C158.293 20.409 161.022 16.0335 164.546 12.4331L163.117 11.0342C159.381 14.8512 156.508 19.4712 154.491 24.8774L156.365 25.5766ZM164.546 12.4331C168.07 8.83301 172.326 6.06918 177.329 4.1449L176.611 2.27821C171.356 4.29935 166.853 7.21692 163.117 11.0342L164.546 12.4331ZM177.341 4.14003C182.338 2.14135 187.891 1.13413 194.014 1.13413V-0.865867C187.669 -0.865867 181.86 0.178532 176.598 2.28308L177.341 4.14003ZM194.014 1.13413C198.733 1.13413 203.169 1.79157 207.325 3.10014L207.926 1.19244C203.56 -0.181864 198.921 -0.865867 194.014 -0.865867V1.13413ZM207.33 3.10169C211.555 4.40753 215.224 6.36002 218.35 8.95253L219.627 7.41302C216.282 4.63977 212.376 2.56794 207.921 1.19089L207.33 3.10169ZM218.371 8.96909C221.563 11.4771 224.156 14.6749 226.146 18.5794L227.928 17.671C225.815 13.5269 223.042 10.0963 219.606 7.39646L218.371 8.96909ZM226.153 18.5931C228.21 22.478 229.483 27.0779 229.947 32.4153L231.939 32.2421C231.456 26.6902 230.125 21.8211 227.921 17.6573L226.153 18.5931ZM230.943 31.3287H210.703V33.3287H230.943V31.3287ZM211.673 32.0862C210.68 28.1148 208.756 24.9856 205.866 22.7755L204.651 24.3642C207.126 26.2574 208.832 28.9674 209.733 32.5713L211.673 32.0862ZM205.892 22.7959C203.048 20.4698 199.123 19.3741 194.251 19.3741V21.3741C198.847 21.3741 202.26 22.409 204.625 24.3438L205.892 22.7959ZM194.251 19.3741C190.5 19.3741 187.252 20.067 184.549 21.5032L185.487 23.2694C187.834 22.0226 190.741 21.3741 194.251 21.3741V19.3741ZM184.571 21.4918C181.915 22.82 179.738 24.6156 178.06 26.8806L179.667 28.0711C181.146 26.0751 183.072 24.4776 185.466 23.2807L184.571 21.4918ZM178.046 26.9004C176.474 29.1339 175.321 31.6502 174.583 34.4401L176.516 34.9519C177.198 32.376 178.255 30.0788 179.681 28.0513L178.046 26.9004ZM174.576 34.4669C173.927 37.225 173.602 40.0242 173.602 42.863H175.602C175.602 40.1781 175.909 37.5327 176.523 34.925L174.576 34.4669ZM299.872 3.21155L299.505 4.14196L299.513 4.14528L299.522 4.14845L299.872 3.21155ZM313.365 11.7337L312.658 12.4408L312.665 12.4483L312.673 12.4556L313.365 11.7337ZM322.124 25.1086L321.191 25.4704L321.195 25.4788L321.198 25.4872L322.124 25.1086ZM322.242 60.2623L323.174 60.624L323.176 60.6194L322.242 60.2623ZM313.483 73.9923L314.19 74.6994L314.198 74.6921L313.483 73.9923ZM299.872 82.8695L300.238 83.7999L300.245 83.797L299.872 82.8695ZM264.718 82.8695L264.356 83.8017L264.718 82.8695ZM251.106 74.229L250.392 74.9286L250.399 74.9362L250.407 74.9435L251.106 74.229ZM242.466 60.6173L241.529 60.967L241.533 60.9791L242.466 60.6173ZM242.584 25.3453L241.656 24.9715L241.652 24.9836L242.584 25.3453ZM251.461 11.852L252.161 12.5665L251.461 11.852ZM265.073 3.21155L264.711 2.27929V2.27929L265.073 3.21155ZM262.587 51.2667L261.626 51.5414L261.631 51.5581L261.636 51.5745L262.587 51.2667ZM266.493 58.6052L265.707 59.223L265.712 59.23L265.718 59.2368L266.493 58.6052ZM273.122 63.8131L272.674 64.7076L272.69 64.7153L272.706 64.7226L273.122 63.8131ZM292.296 63.6948L292.766 64.5779L292.775 64.5727L292.296 63.6948ZM298.688 58.3685L299.477 58.9824L299.483 58.9755L299.488 58.9685L298.688 58.3685ZM302.239 51.1483L301.279 50.8662L301.277 50.8757L301.274 50.8852L302.239 51.1483ZM302.357 35.5245L301.389 35.7735L301.39 35.7804L302.357 35.5245ZM298.806 28.0677L299.606 27.4677V27.4677L298.806 28.0677ZM292.296 22.623L291.797 23.4896L291.813 23.4985L291.828 23.5068L292.296 22.623ZM272.885 22.3863L272.448 21.4867L272.438 21.4918L272.885 22.3863ZM266.257 27.5942L265.481 26.9625L265.474 26.9713L265.467 26.9803L266.257 27.5942ZM262.587 34.8143L261.628 34.5322L262.587 34.8143ZM282.591 1.13413C288.794 1.13413 294.428 2.14183 299.505 4.14196L300.238 2.28114C294.899 0.178047 289.013 -0.865867 282.591 -0.865867V1.13413ZM299.522 4.14845C304.685 6.07493 309.058 8.84093 312.658 12.4408L314.072 11.0265C310.254 7.209 305.632 4.2936 300.221 2.27465L299.522 4.14845ZM312.673 12.4556C316.347 15.9763 319.188 20.3085 321.191 25.4704L323.056 24.7468C320.956 19.335 317.958 14.7505 314.057 11.0117L312.673 12.4556ZM321.198 25.4872C323.273 30.5584 324.319 36.2663 324.319 42.6262H326.319C326.319 36.0452 325.236 30.0747 323.049 24.73L321.198 25.4872ZM324.319 42.6262C324.319 48.9094 323.311 54.6655 321.308 59.9051L323.176 60.6194C325.276 55.1275 326.319 49.1262 326.319 42.6262H324.319ZM321.31 59.9005C319.305 65.0672 316.457 69.5274 312.769 73.2925L314.198 74.6921C318.084 70.7242 321.076 66.031 323.174 60.624L321.31 59.9005ZM312.776 73.2852C309.09 76.9716 304.668 79.8585 299.498 81.942L300.245 83.797C305.649 81.6194 310.302 78.5882 314.19 74.6994L312.776 73.2852ZM299.505 81.9391C294.429 83.9387 288.756 84.9469 282.472 84.9469V86.9469C288.972 86.9469 294.898 85.9035 300.238 83.7999L299.505 81.9391ZM282.472 84.9469C276.028 84.9469 270.235 83.9377 265.08 81.9372L264.356 83.8017C269.775 85.9045 275.818 86.9469 282.472 86.9469V84.9469ZM265.08 81.9372C259.91 79.9311 255.49 77.122 251.806 73.5145L250.407 74.9435C254.297 78.7534 258.952 81.7046 264.356 83.8017L265.08 81.9372ZM251.821 73.5294C248.213 69.8451 245.404 65.4251 243.398 60.2556L241.533 60.9791C243.631 66.3832 246.582 71.0377 250.392 74.9286L251.821 73.5294ZM243.403 60.2677C241.477 55.1078 240.507 49.3497 240.507 42.9813H238.507C238.507 49.5539 239.509 55.5531 241.529 60.9669L243.403 60.2677ZM240.507 42.9813C240.507 36.6173 241.515 30.8635 243.516 25.7071L241.652 24.9836C239.55 30.4009 238.507 36.4044 238.507 42.9813H240.507ZM243.512 25.7191C245.594 20.5506 248.479 16.1715 252.161 12.5665L250.762 11.1375C246.868 14.9499 243.835 19.5664 241.657 24.9716L243.512 25.7191ZM252.161 12.5665C255.845 8.95901 260.265 6.14993 265.435 4.14382L264.711 2.27929C259.307 4.37641 254.653 7.32763 250.762 11.1375L252.161 12.5665ZM265.435 4.14382C270.592 2.1423 276.307 1.13413 282.591 1.13413V-0.865867C276.091 -0.865867 270.127 0.177583 264.711 2.27929L265.435 4.14382ZM260.404 42.863C260.404 45.7976 260.811 48.6913 261.626 51.5414L263.549 50.992C262.785 48.3185 262.404 45.6097 262.404 42.863H260.404ZM261.636 51.5745C262.54 54.3693 263.898 56.9204 265.707 59.223L267.28 57.9874C265.617 55.871 264.371 53.5299 263.539 50.9589L261.636 51.5745ZM265.718 59.2368C267.551 61.4869 269.876 63.3086 272.674 64.7076L273.569 62.9187C271.001 61.6348 268.907 59.9845 267.269 57.9735L265.718 59.2368ZM272.706 64.7226C275.629 66.0587 279.092 66.7069 283.064 66.7069V64.7069C279.303 64.7069 276.138 64.0926 273.537 62.9036L272.706 64.7226ZM283.064 66.7069C286.814 66.7069 290.062 66.014 292.765 64.5779L291.827 62.8116C289.48 64.0584 286.573 64.7069 283.064 64.7069V66.7069ZM292.775 64.5727C295.488 63.0931 297.728 61.2316 299.477 58.9824L297.899 57.7545C296.334 59.7664 294.313 61.4557 291.817 62.8169L292.775 64.5727ZM299.488 58.9685C301.219 56.6605 302.459 54.14 303.204 51.4115L301.274 50.8852C300.598 53.3647 299.471 55.6575 297.888 57.7684L299.488 58.9685ZM303.198 51.4305C304.012 48.6627 304.422 45.9243 304.422 43.2181H302.422C302.422 45.7197 302.044 48.2682 301.279 50.8662L303.198 51.4305ZM304.422 43.2181C304.422 40.6748 304.053 38.024 303.324 35.2686L301.39 35.7804C302.081 38.3908 302.422 40.869 302.422 43.2181H304.422ZM303.326 35.2755C302.584 32.391 301.345 29.7853 299.606 27.4677L298.006 28.6677C299.582 30.7689 300.71 33.1344 301.389 35.7735L303.326 35.2755ZM299.606 27.4677C297.852 25.129 295.564 23.2216 292.764 21.7392L291.828 23.5068C294.394 24.8651 296.446 26.5874 298.006 28.6677L299.606 27.4677ZM292.795 21.7564C290.005 20.1497 286.627 19.3741 282.709 19.3741V21.3741C286.366 21.3741 289.38 22.0977 291.797 23.4896L292.795 21.7564ZM282.709 19.3741C278.805 19.3741 275.374 20.0656 272.448 21.4868L273.322 23.2858C275.919 22.0241 279.038 21.3741 282.709 21.3741V19.3741ZM272.438 21.4918C269.64 22.8908 267.315 24.7125 265.481 26.9625L267.032 28.2259C268.67 26.2149 270.764 24.5646 273.332 23.2807L272.438 21.4918ZM265.467 26.9803C263.73 29.2133 262.451 31.7334 261.628 34.5322L263.547 35.0965C264.302 32.5295 265.469 30.2362 267.046 28.2082L265.467 26.9803ZM261.628 34.5322C260.813 37.3028 260.404 40.0806 260.404 42.863H262.404C262.404 40.2796 262.783 37.6916 263.547 35.0965L261.628 34.5322ZM356.597 1.1994L357.401 0.605452L357.101 0.199396H356.597V1.1994ZM391.987 49.1362L391.183 49.7301L392.987 52.1744V49.1362H391.987ZM391.987 1.1994V0.199396H390.987V1.1994H391.987ZM413.411 1.1994H414.411V0.199396H413.411V1.1994ZM413.411 85V86H414.411V85H413.411ZM393.999 85L393.204 85.606L393.504 86H393.999V85ZM358.017 37.7734L358.812 37.1673L357.017 34.8108V37.7734H358.017ZM358.017 85V86H359.017V85H358.017ZM336.593 85H335.593V86H336.593V85ZM336.593 1.1994V0.199396H335.593V1.1994H336.593ZM355.792 1.79334L391.183 49.7301L392.792 48.5422L357.401 0.605452L355.792 1.79334ZM392.987 49.1362V1.1994H390.987V49.1362H392.987ZM391.987 2.1994H413.411V0.199396H391.987V2.1994ZM412.411 1.1994V85H414.411V1.1994H412.411ZM413.411 84H393.999V86H413.411V84ZM394.795 84.394L358.812 37.1673L357.222 38.3794L393.204 85.606L394.795 84.394ZM357.017 37.7734V85H359.017V37.7734H357.017ZM358.017 84H336.593V86H358.017V84ZM337.593 85V1.1994H335.593V85H337.593ZM336.593 2.1994H356.597V0.199396H336.593V2.1994ZM429.295 85H428.295V86H429.295V85ZM429.295 1.1994V0.199396H428.295V1.1994H429.295ZM479.954 3.92173L479.63 4.86755L479.638 4.87043L479.647 4.87317L479.954 3.92173ZM493.566 11.7337L492.883 12.4637L493.566 11.7337ZM502.088 24.7535L501.153 25.1078L501.158 25.12L502.088 24.7535ZM493.803 74.4657L493.123 73.7324L493.119 73.736L493.803 74.4657ZM472.498 63.6948L472.855 64.6288L472.867 64.6243L472.878 64.6194L472.498 63.6948ZM478.889 59.197L478.123 58.5538L478.121 58.5568L478.889 59.197ZM482.44 52.2136L483.407 52.4695L483.409 52.4626L482.44 52.2136ZM482.44 34.4592L481.467 34.6883L481.47 34.7018L481.473 34.7151L482.44 34.4592ZM479.008 27.4759L478.242 28.119L479.008 27.4759ZM472.261 22.8597L471.867 23.7789L471.883 23.7856L471.898 23.7917L472.261 22.8597ZM450.719 21.0843V20.0843H449.719V21.0843H450.719ZM450.719 65.2335H449.719V66.2335H450.719V65.2335ZM430.295 85V1.1994H428.295V85H430.295ZM429.295 2.1994H462.082V0.199396H429.295V2.1994ZM462.082 2.1994C468.619 2.1994 474.465 3.09449 479.63 4.86755L480.279 2.9759C474.87 1.11919 468.8 0.199396 462.082 0.199396V2.1994ZM479.647 4.87317C484.888 6.5689 489.293 9.10284 492.883 12.4637L494.25 11.0036C490.422 7.42053 485.752 4.74652 480.262 2.97028L479.647 4.87317ZM492.883 12.4637C496.469 15.8215 499.229 20.0287 501.153 25.1077L503.023 24.3993C501.002 19.0624 498.08 14.5897 494.25 11.0036L492.883 12.4637ZM501.158 25.12C503.154 30.1881 504.166 36.0959 504.166 42.863H506.166C506.166 35.9 505.125 29.7348 503.019 24.387L501.158 25.12ZM504.166 42.863C504.166 56.7343 500.429 66.9595 493.123 73.7324L494.483 75.1991C502.327 67.9263 506.166 57.083 506.166 42.863H504.166ZM493.119 73.736C485.86 80.5363 475.64 84 462.318 84V86C475.984 86 486.753 82.4409 494.486 75.1955L493.119 73.736ZM462.318 84H429.295V86H462.318V84ZM462.555 66.2335C466.58 66.2335 470.024 65.7112 472.855 64.6288L472.14 62.7607C469.605 63.73 466.421 64.2335 462.555 64.2335V66.2335ZM472.878 64.6194C475.685 63.4638 477.958 61.8763 479.657 59.8372L478.121 58.5568C476.664 60.3053 474.676 61.7163 472.117 62.7701L472.878 64.6194ZM479.655 59.8402C481.414 57.7462 482.662 55.2835 483.407 52.4695L481.473 51.9577C480.798 54.5095 479.679 56.7024 478.123 58.5538L479.655 59.8402ZM483.409 52.4626C484.142 49.6094 484.505 46.5263 484.505 43.2181H482.505C482.505 46.3803 482.158 49.2942 481.472 51.9646L483.409 52.4626ZM484.505 43.2181C484.505 39.9869 484.142 36.9802 483.407 34.2033L481.473 34.7151C482.159 37.304 482.505 40.1365 482.505 43.2181H484.505ZM483.413 34.2302C482.749 31.4058 481.538 28.9335 479.773 26.8327L478.242 28.119C479.791 29.9636 480.869 32.1469 481.467 34.6883L483.413 34.2302ZM479.773 26.8327C477.99 24.7097 475.592 23.0821 472.623 21.9277L471.898 23.7917C474.611 24.8467 476.711 26.2966 478.242 28.119L479.773 26.8327ZM472.655 21.9406C469.728 20.6862 466.071 20.0843 461.727 20.0843V22.0843C465.905 22.0843 469.27 22.666 471.867 23.7789L472.655 21.9406ZM461.727 20.0843H450.719V22.0843H461.727V20.0843ZM449.719 21.0843V65.2335H451.719V21.0843H449.719ZM450.719 66.2335H462.555V64.2335H450.719V66.2335ZM554.969 85L553.994 85.2217L554.171 86H554.969V85ZM535.913 1.1994V0.199396H534.66L534.938 1.42114L535.913 1.1994ZM559.704 1.1994L560.684 1.0029L560.523 0.199396H559.704V1.1994ZM571.422 59.6704L570.441 59.8669L572.4 59.8783L571.422 59.6704ZM583.85 1.1994V0.199396H583.04L582.872 0.991489L583.85 1.1994ZM610.6 1.1994L611.579 0.995283L611.413 0.199396H610.6V1.1994ZM622.791 59.6704L621.812 59.8745L623.773 59.8574L622.791 59.6704ZM633.917 1.1994V0.199396H633.089L632.935 1.01247L633.917 1.1994ZM656.406 1.1994L657.382 1.4172L657.654 0.199396H656.406V1.1994ZM637.705 85V86H638.506L638.681 85.2178L637.705 85ZM609.061 85L608.084 85.2115L608.254 86H609.061V85ZM596.87 28.6595L597.847 28.448L595.892 28.45L596.87 28.6595ZM584.797 85V86H585.605L585.775 85.2095L584.797 85ZM555.944 84.7783L536.888 0.977655L534.938 1.42114L553.994 85.2217L555.944 84.7783ZM535.913 2.1994H559.704V0.199396H535.913V2.1994ZM558.723 1.39589L570.441 59.8669L572.402 59.4739L560.684 1.0029L558.723 1.39589ZM572.4 59.8783L584.828 1.4073L582.872 0.991489L570.444 59.4625L572.4 59.8783ZM583.85 2.1994H610.6V0.199396H583.85V2.1994ZM609.621 1.40351L621.812 59.8745L623.77 59.4663L611.579 0.995283L609.621 1.40351ZM623.773 59.8574L634.899 1.38633L632.935 1.01247L621.809 59.4835L623.773 59.8574ZM633.917 2.1994H656.406V0.199396H633.917V2.1994ZM655.43 0.98159L636.729 84.7822L638.681 85.2178L657.382 1.4172L655.43 0.98159ZM637.705 84H609.061V86H637.705V84ZM610.038 84.7885L597.847 28.448L595.892 28.871L608.084 85.2115L610.038 84.7885ZM595.892 28.45L583.819 84.7905L585.775 85.2095L597.847 28.869L595.892 28.45ZM584.797 84H554.969V86H584.797V84ZM718.879 3.21155L718.513 4.14196L718.521 4.14528L718.53 4.14845L718.879 3.21155ZM732.372 11.7337L731.665 12.4408L731.673 12.4483L731.681 12.4556L732.372 11.7337ZM741.131 25.1086L740.199 25.4704L740.202 25.4788L740.206 25.4872L741.131 25.1086ZM741.25 60.2623L742.182 60.624L742.184 60.6194L741.25 60.2623ZM732.491 73.9923L733.198 74.6994L733.205 74.6921L732.491 73.9923ZM718.879 82.8695L719.246 83.7999L719.253 83.797L718.879 82.8695ZM683.725 82.8695L683.364 83.8017L683.725 82.8695ZM670.114 74.229L669.399 74.9286L669.407 74.9362L669.414 74.9435L670.114 74.229ZM661.473 60.6173L660.536 60.967L660.541 60.9791L661.473 60.6173ZM661.592 25.3453L660.664 24.9715L660.659 24.9836L661.592 25.3453ZM670.469 11.852L671.169 12.5665L670.469 11.852ZM684.081 3.21155L683.719 2.27929V2.27929L684.081 3.21155ZM681.595 51.2667L680.633 51.5414L680.638 51.5581L680.643 51.5745L681.595 51.2667ZM685.501 58.6052L684.715 59.223L684.72 59.23L684.726 59.2368L685.501 58.6052ZM692.129 63.8131L691.682 64.7076L691.698 64.7153L691.713 64.7226L692.129 63.8131ZM711.304 63.6948L711.773 64.5779L711.783 64.5727L711.304 63.6948ZM717.695 58.3685L718.485 58.9824L718.49 58.9755L718.495 58.9685L717.695 58.3685ZM721.246 51.1483L720.287 50.8662L720.284 50.8757L720.282 50.8852L721.246 51.1483ZM721.365 35.5245L720.396 35.7735L720.398 35.7804L721.365 35.5245ZM717.814 28.0677L718.614 27.4677V27.4677L717.814 28.0677ZM711.304 22.623L710.805 23.4896L710.82 23.4985L710.836 23.5068L711.304 22.623ZM691.893 22.3863L691.456 21.4867L691.445 21.4918L691.893 22.3863ZM685.264 27.5942L684.489 26.9625L684.482 26.9713L684.475 26.9803L685.264 27.5942ZM681.595 34.8143L680.636 34.5322L681.595 34.8143ZM701.598 1.13413C707.801 1.13413 713.435 2.14183 718.513 4.14196L719.246 2.28114C713.907 0.178047 708.02 -0.865867 701.598 -0.865867V1.13413ZM718.53 4.14845C723.693 6.07493 728.065 8.84093 731.665 12.4408L733.08 11.0265C729.262 7.209 724.639 4.2936 719.229 2.27465L718.53 4.14845ZM731.681 12.4556C735.354 15.9763 738.196 20.3085 740.199 25.4704L742.064 24.7468C739.963 19.335 736.966 14.7505 733.064 11.0117L731.681 12.4556ZM740.206 25.4872C742.28 30.5584 743.327 36.2663 743.327 42.6262H745.327C745.327 36.0452 744.243 30.0747 742.057 24.73L740.206 25.4872ZM743.327 42.6262C743.327 48.9094 742.319 54.6655 740.316 59.9051L742.184 60.6194C744.284 55.1275 745.327 49.1262 745.327 42.6262H743.327ZM740.317 59.9005C738.312 65.0672 735.465 69.5274 731.776 73.2925L733.205 74.6921C737.092 70.7242 740.084 66.031 742.182 60.624L740.317 59.9005ZM731.784 73.2852C728.097 76.9716 723.676 79.8585 718.505 81.942L719.253 83.797C724.656 81.6194 729.309 78.5882 733.198 74.6994L731.784 73.2852ZM718.513 81.9391C713.437 83.9387 707.764 84.9469 701.48 84.9469V86.9469C707.979 86.9469 713.906 85.9035 719.246 83.7999L718.513 81.9391ZM701.48 84.9469C695.035 84.9469 689.242 83.9377 684.087 81.9372L683.364 83.8017C688.782 85.9045 694.826 86.9469 701.48 86.9469V84.9469ZM684.087 81.9372C678.918 79.9311 674.498 77.122 670.813 73.5145L669.414 74.9435C673.305 78.7534 677.96 81.7046 683.364 83.8017L684.087 81.9372ZM670.828 73.5294C667.221 69.8451 664.412 65.4251 662.406 60.2556L660.541 60.9791C662.638 66.3832 665.589 71.0377 669.399 74.9286L670.828 73.5294ZM662.41 60.2677C660.485 55.1078 659.514 49.3497 659.514 42.9813H657.514C657.514 49.5539 658.516 55.5531 660.536 60.9669L662.41 60.2677ZM659.514 42.9813C659.514 36.6173 660.523 30.8635 662.524 25.7071L660.659 24.9836C658.557 30.4009 657.514 36.4044 657.514 42.9813H659.514ZM662.519 25.7191C664.602 20.5506 667.487 16.1715 671.169 12.5665L669.769 11.1375C665.876 14.9499 662.842 19.5664 660.664 24.9716L662.519 25.7191ZM671.169 12.5665C674.853 8.95901 679.273 6.14993 684.442 4.14382L683.719 2.27929C678.315 4.37641 673.66 7.32763 669.769 11.1375L671.169 12.5665ZM684.442 4.14382C689.6 2.1423 695.315 1.13413 701.598 1.13413V-0.865867C695.099 -0.865867 689.135 0.177583 683.719 2.27929L684.442 4.14382ZM679.411 42.863C679.411 45.7976 679.819 48.6913 680.633 51.5414L682.556 50.992C681.793 48.3185 681.411 45.6097 681.411 42.863H679.411ZM680.643 51.5745C681.548 54.3693 682.905 56.9204 684.715 59.223L686.287 57.9874C684.624 55.871 683.378 53.5299 682.546 50.9589L680.643 51.5745ZM684.726 59.2368C686.559 61.4869 688.884 63.3086 691.682 64.7076L692.576 62.9187C690.009 61.6348 687.915 59.9845 686.276 57.9735L684.726 59.2368ZM691.713 64.7226C694.636 66.0587 698.1 66.7069 702.072 66.7069V64.7069C698.311 64.7069 695.146 64.0926 692.545 62.9036L691.713 64.7226ZM702.072 66.7069C705.822 66.7069 709.07 66.014 711.773 64.5779L710.835 62.8116C708.488 64.0584 705.581 64.7069 702.072 64.7069V66.7069ZM711.783 64.5727C714.495 63.0931 716.735 61.2316 718.485 58.9824L716.906 57.7545C715.341 59.7664 713.321 61.4557 710.825 62.8169L711.783 64.5727ZM718.495 58.9685C720.226 56.6605 721.467 54.14 722.211 51.4115L720.282 50.8852C719.605 53.3647 718.479 55.6575 716.896 57.7684L718.495 58.9685ZM722.206 51.4305C723.02 48.6627 723.43 45.9243 723.43 43.2181H721.43C721.43 45.7197 721.051 48.2682 720.287 50.8662L722.206 51.4305ZM723.43 43.2181C723.43 40.6748 723.061 38.024 722.331 35.2686L720.398 35.7804C721.089 38.3908 721.43 40.869 721.43 43.2181H723.43ZM722.333 35.2755C721.591 32.391 720.352 29.7853 718.614 27.4677L717.014 28.6677C718.59 30.7689 719.718 33.1344 720.396 35.7735L722.333 35.2755ZM718.614 27.4677C716.86 25.129 714.572 23.2216 711.772 21.7392L710.836 23.5068C713.402 24.8651 715.454 26.5874 717.014 28.6677L718.614 27.4677ZM711.803 21.7564C709.012 20.1497 705.634 19.3741 701.717 19.3741V21.3741C705.374 21.3741 708.387 22.0977 710.805 23.4896L711.803 21.7564ZM701.717 19.3741C697.812 19.3741 694.382 20.0656 691.456 21.4868L692.329 23.2858C694.927 22.0241 698.046 21.3741 701.717 21.3741V19.3741ZM691.445 21.4918C688.647 22.8908 686.322 24.7125 684.489 26.9625L686.039 28.2259C687.678 26.2149 689.772 24.5646 692.34 23.2807L691.445 21.4918ZM684.475 26.9803C682.738 29.2133 681.459 31.7334 680.636 34.5322L682.554 35.0965C683.309 32.5295 684.476 30.2362 686.054 28.2082L684.475 26.9803ZM680.636 34.5322C679.821 37.3028 679.411 40.0806 679.411 42.863H681.411C681.411 40.2796 681.791 37.6916 682.554 35.0965L680.636 34.5322ZM802.591 2.26465L802.414 3.24883L802.425 3.25083L802.436 3.25257L802.591 2.26465ZM813.48 6.17062L812.96 7.02441L813.48 6.17062ZM824.843 28.7778L825.843 28.8064L825.843 28.7854L825.843 28.7643L824.843 28.7778ZM820.819 43.5731L819.954 43.0702L819.948 43.0821L820.819 43.5731ZM808.391 53.3972L808.037 52.4619L806.906 52.89L807.539 53.9206L808.391 53.3972ZM827.802 85V86H829.59L828.654 84.4766L827.802 85ZM803.42 85L802.55 85.4946L802.838 86H803.42V85ZM787.322 56.7114L788.191 56.2168L787.904 55.7114H787.322V56.7114ZM777.025 56.7114V55.7114H776.025V56.7114H777.025ZM777.025 85V86H778.025V85H777.025ZM755.601 85H754.601V86H755.601V85ZM755.601 1.1994V0.199396H754.601V1.1994H755.601ZM800.342 35.6429L799.781 34.8154L799.774 34.8202L799.767 34.8251L800.342 35.6429ZM802.709 24.9902L803.561 24.4661L802.709 24.9902ZM800.105 22.623L799.609 23.4912L799.633 23.505L799.658 23.5174L800.105 22.623ZM796.199 21.4394L796.043 22.4271L796.069 22.4312L796.095 22.4339L796.199 21.4394ZM777.025 21.0843V20.0843H776.025V21.0843H777.025ZM777.025 37.8917H776.025V38.8917H777.025V37.8917ZM790.992 2.1994C794.716 2.1994 798.523 2.54858 802.414 3.24883L802.768 1.28047C798.768 0.560384 794.842 0.199396 790.992 0.199396V2.1994ZM802.436 3.25257C806.341 3.86507 809.845 5.12493 812.96 7.02441L814.001 5.31682C810.646 3.27088 806.89 1.92677 802.746 1.27673L802.436 3.25257ZM812.96 7.02441C816.039 8.90204 818.61 11.577 820.667 15.0805L822.391 14.0681C820.187 10.3121 817.392 7.38461 814.001 5.31682L812.96 7.02441ZM820.667 15.0805C822.682 18.5139 823.766 23.0616 823.843 28.7914L825.843 28.7643C825.763 22.8157 824.637 17.8943 822.391 14.0681L820.667 15.0805ZM823.844 28.7493C823.69 34.1231 822.387 38.8888 819.954 43.0703L821.683 44.076C824.3 39.5776 825.681 34.4798 825.843 28.8064L823.844 28.7493ZM819.948 43.0821C817.643 47.1705 813.714 50.3138 808.037 52.4619L808.745 54.3325C814.746 52.0617 819.102 48.6557 821.69 44.0642L819.948 43.0821ZM807.539 53.9206L826.95 85.5234L828.654 84.4766L809.243 52.8738L807.539 53.9206ZM827.802 84H803.42V86H827.802V84ZM804.289 84.5054L788.191 56.2168L786.453 57.2059L802.55 85.4946L804.289 84.5054ZM787.322 55.7114H777.025V57.7114H787.322V55.7114ZM776.025 56.7114V85H778.025V56.7114H776.025ZM777.025 84H755.601V86H777.025V84ZM756.601 85V1.1994H754.601V85H756.601ZM755.601 2.1994H790.992V0.199396H755.601V2.1994ZM791.11 38.8917C795.236 38.8917 798.55 38.1271 800.918 36.4607L799.767 34.8251C797.874 36.1571 795.033 36.8917 791.11 36.8917V38.8917ZM800.904 36.4703C803.407 34.7713 804.656 32.2799 804.656 29.1329H802.656C802.656 31.6673 801.696 33.5159 799.781 34.8154L800.904 36.4703ZM804.656 29.1329C804.656 27.2891 804.323 25.7044 803.561 24.4661L801.858 25.5143C802.358 26.3277 802.656 27.5048 802.656 29.1329H804.656ZM803.561 24.4661C802.83 23.2774 801.82 22.362 800.553 21.7286L799.658 23.5174C800.601 23.9887 801.327 24.6515 801.858 25.5143L803.561 24.4661ZM800.602 21.7548C799.356 21.0432 797.916 20.6145 796.304 20.4449L796.095 22.4339C797.481 22.5798 798.645 22.9402 799.609 23.4912L800.602 21.7548ZM796.355 20.4516C794.8 20.206 793.17 20.0843 791.465 20.0843V22.0843C793.074 22.0843 794.6 22.1993 796.043 22.4271L796.355 20.4516ZM791.465 20.0843H777.025V22.0843H791.465V20.0843ZM776.025 21.0843V37.8917H778.025V21.0843H776.025ZM777.025 38.8917H791.11V36.8917H777.025V38.8917ZM861.057 65.2335H860.057V66.2335H861.057V65.2335ZM901.182 65.2335H902.182V64.2335H901.182V65.2335ZM901.182 85V86H902.182V85H901.182ZM839.634 85H838.634V86H839.634V85ZM839.634 1.1994V0.199396H838.634V1.1994H839.634ZM861.057 1.1994H862.057V0.199396H861.057V1.1994ZM861.057 66.2335H901.182V64.2335H861.057V66.2335ZM900.182 65.2335V85H902.182V65.2335H900.182ZM901.182 84H839.634V86H901.182V84ZM840.634 85V1.1994H838.634V85H840.634ZM839.634 2.1994H861.057V0.199396H839.634V2.1994ZM860.057 1.1994V65.2335H862.057V1.1994H860.057ZM911.53 85H910.53V86H911.53V85ZM911.53 1.1994V0.199396H910.53V1.1994H911.53ZM962.189 3.92173L961.864 4.86755L961.873 4.87043L961.881 4.87317L962.189 3.92173ZM975.801 11.7337L975.117 12.4637L975.801 11.7337ZM984.323 24.7535L983.387 25.1078L983.392 25.12L984.323 24.7535ZM976.037 74.4657L975.357 73.7324L975.354 73.736L976.037 74.4657ZM954.732 63.6948L955.089 64.6288L955.101 64.6243L955.113 64.6194L954.732 63.6948ZM961.124 59.197L960.358 58.5538L960.355 58.5568L961.124 59.197ZM964.674 52.2136L965.641 52.4695L965.643 52.4626L964.674 52.2136ZM964.674 34.4592L963.701 34.6883L963.704 34.7018L963.708 34.7151L964.674 34.4592ZM961.242 27.4759L960.476 28.119L961.242 27.4759ZM954.495 22.8597L954.101 23.7789L954.117 23.7856L954.133 23.7917L954.495 22.8597ZM932.953 21.0843V20.0843H931.953V21.0843H932.953ZM932.953 65.2335H931.953V66.2335H932.953V65.2335ZM912.53 85V1.1994H910.53V85H912.53ZM911.53 2.1994H944.316V0.199396H911.53V2.1994ZM944.316 2.1994C950.854 2.1994 956.699 3.09449 961.864 4.86755L962.514 2.9759C957.105 1.11919 951.035 0.199396 944.316 0.199396V2.1994ZM961.881 4.87317C967.122 6.5689 971.527 9.10284 975.117 12.4637L976.484 11.0036C972.657 7.42053 967.987 4.74652 962.497 2.97028L961.881 4.87317ZM975.117 12.4637C978.704 15.8215 981.464 20.0287 983.387 25.1077L985.258 24.3993C983.236 19.0624 980.315 14.5897 976.484 11.0036L975.117 12.4637ZM983.392 25.12C985.389 30.1881 986.4 36.0959 986.4 42.863H988.4C988.4 35.9 987.36 29.7348 985.253 24.387L983.392 25.12ZM986.4 42.863C986.4 56.7343 982.663 66.9595 975.357 73.7324L976.717 75.1991C984.562 67.9263 988.4 57.083 988.4 42.863H986.4ZM975.354 73.736C968.095 80.5363 957.874 84 944.553 84V86C958.218 86 968.987 82.4409 976.721 75.1955L975.354 73.736ZM944.553 84H911.53V86H944.553V84ZM944.79 66.2335C948.815 66.2335 952.258 65.7112 955.089 64.6288L954.375 62.7607C951.84 63.73 948.655 64.2335 944.79 64.2335V66.2335ZM955.113 64.6194C957.919 63.4638 960.193 61.8763 961.892 59.8372L960.355 58.5568C958.898 60.3053 956.91 61.7163 954.351 62.7701L955.113 64.6194ZM961.889 59.8402C963.648 57.7462 964.896 55.2835 965.641 52.4695L963.708 51.9577C963.032 54.5095 961.913 56.7024 960.358 58.5538L961.889 59.8402ZM965.643 52.4626C966.377 49.6094 966.74 46.5263 966.74 43.2181H964.74C964.74 46.3803 964.393 49.2942 963.706 51.9646L965.643 52.4626ZM966.74 43.2181C966.74 39.9869 966.376 36.9802 965.641 34.2033L963.708 34.7151C964.393 37.304 964.74 40.1365 964.74 43.2181H966.74ZM965.648 34.2302C964.983 31.4058 963.772 28.9335 962.008 26.8327L960.476 28.119C962.026 29.9636 963.103 32.1469 963.701 34.6883L965.648 34.2302ZM962.008 26.8327C960.224 24.7097 957.826 23.0821 954.858 21.9277L954.133 23.7917C956.846 24.8467 958.945 26.2966 960.476 28.119L962.008 26.8327ZM954.889 21.9406C951.962 20.6862 948.305 20.0843 943.961 20.0843V22.0843C948.139 22.0843 951.505 22.666 954.101 23.7789L954.889 21.9406ZM943.961 20.0843H932.953V22.0843H943.961V20.0843ZM931.953 21.0843V65.2335H933.953V21.0843H931.953ZM932.953 66.2335H944.79V64.2335H932.953V66.2335Z" fill="#393939"/>
</svg>
