<svg width="20" height="21" viewBox="0 0 20 21" fill="none" xmlns="http://www.w3.org/2000/svg">
<g clip-path="url(#clip0_232_2394)">
<path d="M0.41125 13.6779C1.03849 15.7096 2.30748 17.4881 4.03142 18.7516C5.75536 20.0151 7.84316 20.6968 9.9875 20.6965C15.5175 20.6965 20 16.2601 20 10.7884C20 5.3167 15.5175 0.880372 9.98875 0.880372C7.45034 0.879399 5.00641 1.83422 3.15182 3.55149C1.29723 5.26876 0.17058 7.62015 0 10.1295L0.00375 10.137L5.38375 12.3279C5.86898 12.0096 6.44367 11.8522 7.025 11.8783L9.475 8.356L9.47375 8.30646C9.47474 7.30743 9.87564 6.34959 10.5885 5.64305C11.3014 4.93652 12.268 4.53899 13.2763 4.53768C14.2845 4.53899 15.2511 4.93652 15.964 5.64305C16.6769 6.34959 17.0778 7.30743 17.0788 8.30646C17.0784 8.80846 16.9769 9.30534 16.7803 9.768C16.5837 10.2307 16.2959 10.6498 15.9337 11.0009C15.5716 11.352 15.1424 11.6279 14.6713 11.8126C14.2001 11.9973 13.6965 12.087 13.19 12.0765L9.685 14.5535C9.69689 15.0123 9.59282 15.4668 9.38226 15.8756C9.17169 16.2844 8.86131 16.6346 8.47935 16.8943C8.09739 17.154 7.65596 17.3149 7.19522 17.3625C6.73448 17.4101 6.26905 17.3428 5.84125 17.1667C5.43065 16.9972 5.06728 16.7322 4.78183 16.3942C4.49638 16.0562 4.29724 15.6551 4.20125 15.2248L0.4125 13.6779H0.41125Z" fill="white"/>
<path d="M6.08492 16.588C6.60571 16.785 7.18346 16.7732 7.69563 16.5552C8.2078 16.3371 8.61412 15.93 8.82842 15.4202C9.04272 14.9103 9.04814 14.3378 8.84353 13.824C8.63892 13.3102 8.24038 12.8956 7.73242 12.6681C7.22878 12.4599 6.66371 12.451 6.15367 12.6434L7.43242 13.1685C7.62366 13.2474 7.79734 13.3628 7.94356 13.5082C8.08977 13.6536 8.20565 13.8261 8.28458 14.0158C8.36351 14.2056 8.40394 14.4089 8.40357 14.6141C8.4032 14.8194 8.36204 15.0225 8.28242 15.212C8.20281 15.4015 8.08631 15.5736 7.93957 15.7185C7.79283 15.8633 7.61873 15.9781 7.42721 16.0563C7.23569 16.1345 7.0305 16.1746 6.82335 16.1742C6.61621 16.1739 6.41116 16.1331 6.21992 16.0542L4.98242 15.5464C5.20762 16.0162 5.60035 16.3868 6.08492 16.5868V16.588ZM10.7424 8.30611C10.7428 8.97205 11.0097 9.61066 11.4848 10.0818C11.9598 10.5529 12.6041 10.8181 13.2762 10.819C13.9483 10.8181 14.5926 10.5529 15.0676 10.0818C15.5426 9.61066 15.8096 8.97205 15.8099 8.30611C15.8089 7.6406 15.5417 7.00262 15.0667 6.53203C14.5918 6.06145 13.9479 5.79664 13.2762 5.79565C12.6045 5.79664 11.9606 6.06145 11.4856 6.53203C11.0107 7.00262 10.7434 7.6406 10.7424 8.30611ZM13.2799 6.41491C13.5301 6.41507 13.7778 6.46405 14.0088 6.55906C14.2399 6.65406 14.4498 6.79323 14.6266 6.96861C14.8034 7.144 14.9436 7.35216 15.0391 7.58123C15.1347 7.81029 15.1838 8.05576 15.1837 8.30363C15.1835 8.5515 15.1341 8.79691 15.0382 9.02585C14.9423 9.25478 14.8018 9.46277 14.6248 9.63792C14.4478 9.81307 14.2377 9.95197 14.0065 10.0467C13.7753 10.1414 13.5276 10.19 13.2774 10.1899C12.7722 10.1895 12.2878 9.99037 11.9308 9.63617C11.5737 9.28196 11.3733 8.80175 11.3737 8.30115C11.374 7.80056 11.575 7.3206 11.9325 6.96686C12.29 6.61312 12.7747 6.41458 13.2799 6.41491Z" fill="white"/>
</g>
<defs>
<clipPath id="clip0_232_2394">
<rect width="20" height="19.8161" fill="white" transform="translate(0 0.880371)"/>
</clipPath>
</defs>
</svg>
