<svg width="140" height="57" viewBox="0 0 140 57" fill="none" xmlns="http://www.w3.org/2000/svg">
<g clip-path="url(#clip0)">
<path d="M22.2796 32.6789H11.6949V39.6697H24.1143V43.9817H6.18146V17.8991H24.0578V22.2477H11.6949V28.4404H22.2796V32.6789ZM36.9288 26.8899L41.9436 17.8991H48.285L40.457 30.8349L48.4449 43.9817H42.0753L36.9288 34.8624L31.7823 44.0367H25.4032L33.4005 30.8899L25.6102 17.9541H31.9516L36.9288 26.8899ZM56.7903 34.789V43.9633H51.2769V17.8991H61.711C63.5374 17.8599 65.3489 18.227 67.0081 18.9725C68.4803 19.6165 69.7196 20.6779 70.5645 22.0183C71.3978 23.3752 71.8248 24.9325 71.7971 26.5138C71.8502 27.657 71.6346 28.7969 71.1665 29.8464C70.6985 30.8959 69.9906 31.8271 69.0968 32.5688C67.3091 34.0367 64.8284 34.7706 61.6546 34.7706L56.7903 34.789ZM56.7903 30.4404H61.711C62.9115 30.5214 64.0997 30.1614 65.0417 29.4312C65.4336 29.0705 65.7402 28.6309 65.9401 28.1429C66.1399 27.6549 66.2283 27.1302 66.1989 26.6055C66.2501 25.4631 65.8338 24.3477 65.0417 23.5046C64.6218 23.0995 64.1214 22.7824 63.5714 22.5726C63.0213 22.3627 62.4331 22.2647 61.8428 22.2844H56.7903V30.4404ZM91.668 32.6789H81.0833V39.6697H93.5027V43.9817H75.5699V17.8991H93.4462V22.2477H81.0833V28.4404H91.668V32.6789ZM106.647 34.4312H102.253V43.9817H96.7393V17.8991H106.684C109.82 17.8991 112.257 18.5841 113.995 19.9541C114.856 20.6656 115.537 21.5617 115.984 22.5723C116.431 23.5829 116.633 24.6807 116.573 25.7798C116.636 27.3602 116.22 28.9236 115.378 30.2752C114.489 31.538 113.244 32.5227 111.793 33.1101L117.608 43.7339V43.9817H111.69L106.647 34.4312ZM102.253 30.0826H106.703C107.871 30.1561 109.023 29.7881 109.921 29.055C110.306 28.6863 110.606 28.2422 110.802 27.752C110.999 27.2618 111.086 26.7366 111.059 26.211C111.089 25.6808 111.008 25.1501 110.82 24.6516C110.633 24.1531 110.343 23.6972 109.968 23.3119C109.522 22.928 109.002 22.6358 108.437 22.4529C107.873 22.27 107.277 22.2002 106.684 22.2477H102.253V30.0826ZM140 22.2477H131.805V43.9817H126.292V22.2477H118.2V17.8991H140V22.2477Z" fill="#2A00A2"/>
<path d="M101.265 54.6147L102.554 55.0459C102.343 55.3689 102.107 55.6756 101.848 55.9634C101.335 56.4645 100.681 56.8059 99.9695 56.9446C99.2575 57.0832 98.5193 57.0128 97.8484 56.7422C97.1775 56.4715 96.604 56.013 96.2005 55.4244C95.797 54.8359 95.5816 54.1438 95.5816 53.4359C95.5816 52.7279 95.797 52.0358 96.2005 51.4473C96.604 50.8587 97.1775 50.4002 97.8484 50.1296C98.5193 49.859 99.2575 49.7885 99.9695 49.9271C100.681 50.0658 101.335 50.4072 101.848 50.9083C102.106 51.1738 102.342 51.4591 102.554 51.7615L101.227 52.2386C101.058 52.0368 100.936 51.9083 100.879 51.8441C100.557 51.5325 100.148 51.3207 99.7036 51.2354C99.2587 51.1501 98.7979 51.1952 98.3793 51.3649C97.9606 51.5347 97.6029 51.8215 97.3512 52.1893C97.0996 52.557 96.9652 52.9892 96.9651 53.4313C96.9544 53.8832 97.0838 54.3279 97.3363 54.707C97.5888 55.0862 97.9527 55.3823 98.3805 55.5567C98.8083 55.7311 99.28 55.7756 99.7341 55.6845C100.188 55.5934 100.604 55.3708 100.926 55.0459L101.265 54.6147ZM105.48 46.7891V56.8258H104.134V46.7891H105.48ZM108.848 50.3762V56.7982H107.512V50.3762H108.848ZM108.199 47.7065C108.448 47.7065 108.688 47.8032 108.864 47.9752C109.041 48.1473 109.14 48.3806 109.14 48.6239C109.14 48.8672 109.041 49.1006 108.864 49.2726C108.688 49.4447 108.448 49.5414 108.199 49.5414C108.076 49.544 107.954 49.5217 107.841 49.4759C107.728 49.4301 107.625 49.3618 107.54 49.2753C107.368 49.1038 107.271 48.8732 107.271 48.6331C107.271 48.393 107.368 48.1624 107.54 47.9909C107.624 47.9011 107.725 47.8294 107.839 47.7804C107.952 47.7314 108.075 47.7062 108.199 47.7065ZM112.245 52.0918V56.8074H110.909V50.3854H112.245V51.1377C112.358 50.7964 112.585 50.5021 112.891 50.3024C113.196 50.1027 113.562 50.0091 113.929 50.0368C114.252 50.0242 114.574 50.0847 114.87 50.2136C115.165 50.3425 115.426 50.5363 115.632 50.7799C116.059 51.3008 116.291 51.9479 116.29 52.6147V56.8074H114.954V52.6881C114.952 52.516 114.914 52.346 114.843 52.1884C114.772 52.0308 114.669 51.8888 114.54 51.7707C114.41 51.6416 114.255 51.5394 114.084 51.4701C113.912 51.4007 113.729 51.3657 113.543 51.367C113.19 51.3729 112.853 51.5109 112.602 51.7524C112.455 51.8474 112.327 51.9688 112.226 52.1102L112.245 52.0918ZM119.687 50.3579V56.7799H118.351V50.3579H119.687ZM119 47.7065C119.123 47.7039 119.245 47.7261 119.358 47.7719C119.471 47.8178 119.574 47.8861 119.659 47.9725C119.831 48.144 119.928 48.3746 119.928 48.6148C119.928 48.8549 119.831 49.0855 119.659 49.257C119.574 49.3434 119.471 49.4117 119.358 49.4576C119.245 49.5034 119.123 49.5256 119 49.523C118.75 49.523 118.511 49.4264 118.335 49.2543C118.158 49.0822 118.059 48.8489 118.059 48.6056C118.059 48.3623 118.158 48.1289 118.335 47.9569C118.511 47.7848 118.75 47.6881 119 47.6881V47.7065ZM126.95 54.5964L128.286 55.0643C128.07 55.3858 127.831 55.6924 127.571 55.9817C127.058 56.4828 126.405 56.8243 125.693 56.9629C124.981 57.1015 124.242 57.0311 123.572 56.7605C122.901 56.4899 122.327 56.0313 121.924 55.4428C121.52 54.8542 121.305 54.1622 121.305 53.4542C121.305 52.7462 121.52 52.0542 121.924 51.4656C122.327 50.8771 122.901 50.4185 123.572 50.1479C124.242 49.8773 124.981 49.8069 125.693 49.9455C126.405 50.0841 127.058 50.4256 127.571 50.9267C127.831 51.1937 128.07 51.4789 128.286 51.7799L126.95 52.257C126.781 52.0551 126.668 51.9267 126.602 51.8625C126.39 51.655 126.138 51.4904 125.86 51.378C125.582 51.2657 125.285 51.2079 124.984 51.2079C124.683 51.2079 124.386 51.2657 124.108 51.378C123.83 51.4904 123.578 51.655 123.366 51.8625C123.149 52.0663 122.977 52.3117 122.862 52.5833C122.747 52.8549 122.691 53.1467 122.698 53.4404C122.695 53.7343 122.752 54.0257 122.866 54.2978C122.98 54.5699 123.148 54.8173 123.361 55.0255C123.574 55.2337 123.827 55.3987 124.105 55.5109C124.384 55.6231 124.682 55.6802 124.984 55.679C125.286 55.6827 125.586 55.6269 125.866 55.515C126.145 55.403 126.399 55.2373 126.612 55.0276L126.95 54.5964Z" fill="#2A00A2"/>
<path d="M20.9342 8.57798C21.2926 8.80789 21.7208 8.91148 22.1479 8.87156C22.4475 8.88006 22.7459 8.83006 23.0254 8.7245C23.3049 8.61894 23.56 8.45995 23.7756 8.25688L24.1143 7.86238L25.4033 8.25688C25.1925 8.57985 24.9566 8.88657 24.6976 9.17431C24.0113 9.84323 23.0806 10.219 22.1103 10.219C21.1399 10.219 20.2092 9.84323 19.5229 9.17431C19.1762 8.84606 18.9022 8.45203 18.7178 8.01654C18.5333 7.58104 18.4423 7.11332 18.4503 6.6422C18.443 6.17255 18.5344 5.70641 18.7189 5.27251C18.9033 4.8386 19.177 4.44613 19.5229 4.11927C20.1613 3.48008 21.0211 3.09585 21.9345 3.04156C22.8478 2.98728 23.7491 3.26685 24.4624 3.82569L24.7729 4.11009C24.8199 4.11009 24.9423 4.2844 25.1398 4.50459L24.4624 5.16514L20.9342 8.57798ZM23.1546 4.58716C22.8433 4.43573 22.4937 4.3752 22.1479 4.41284C21.5423 4.41282 20.9612 4.64615 20.5312 5.06199C20.1012 5.47784 19.8572 6.04252 19.8522 6.63303C19.8203 6.97293 19.882 7.31498 20.031 7.62385L23.1546 4.58716ZM32.7326 7.11927V6.20184C32.6479 5.78086 32.4309 5.39606 32.1116 5.10092C31.7922 4.80132 31.3907 4.59827 30.9556 4.51628C30.5205 4.43429 30.0703 4.47687 29.6595 4.63887C29.2486 4.80086 28.8946 5.07536 28.6402 5.42922C28.3858 5.78308 28.2419 6.20117 28.2259 6.63303C28.2283 7.07084 28.3618 7.49843 28.61 7.86328C28.8582 8.22814 29.2102 8.51437 29.6229 8.68684C30.0356 8.8593 30.491 8.91049 30.9331 8.83411C31.3752 8.75773 31.7848 8.55711 32.1116 8.25688C32.4378 7.95201 32.6554 7.55337 32.7326 7.11927ZM32.7326 4.0367V0H34.0686V10.0367H32.7326V9.23853C32.4487 9.5454 32.1018 9.79058 31.7144 9.95812C31.327 10.1257 30.9077 10.2118 30.4839 10.211C30.003 10.2193 29.5253 10.1317 29.0804 9.95337C28.6354 9.77509 28.2326 9.50998 27.8966 9.17431C27.5499 8.84606 27.2759 8.45203 27.0914 8.01654C26.9069 7.58104 26.8159 7.11332 26.824 6.6422C26.8167 6.17255 26.9081 5.70641 27.0925 5.27251C27.277 4.8386 27.5506 4.44613 27.8966 4.11927C28.231 3.78028 28.6331 3.51176 29.0781 3.3303C29.5231 3.14883 30.0016 3.05827 30.4839 3.06422C30.9077 3.0634 31.327 3.14956 31.7144 3.31711C32.1018 3.48465 32.4487 3.72983 32.7326 4.0367ZM37.4369 3.58716V10.0092H36.1103V3.58716H37.4369ZM36.7783 0.917431C36.9011 0.914221 37.0232 0.936253 37.1366 0.982092C37.2501 1.02793 37.3524 1.09655 37.4369 1.18349C37.5282 1.26468 37.6007 1.364 37.6494 1.47477C37.698 1.58554 37.7218 1.7052 37.7191 1.82569C37.7218 1.94618 37.698 2.06583 37.6494 2.17661C37.6007 2.28738 37.5282 2.3867 37.4369 2.46789C37.3524 2.55483 37.2501 2.62345 37.1366 2.66928C37.0232 2.71512 36.9011 2.73715 36.7783 2.73394C36.6556 2.73659 36.5337 2.71429 36.4203 2.66849C36.3069 2.62268 36.2045 2.55437 36.1197 2.46789C35.9481 2.29928 35.8503 2.07236 35.8468 1.83486C35.8479 1.59418 35.9459 1.36354 36.1197 1.19266C36.2037 1.10452 36.3057 1.0345 36.4191 0.987095C36.5325 0.939694 36.6549 0.915964 36.7783 0.917431ZM44.7285 7.80734L46.1022 8.25688C45.8847 8.57527 45.6491 8.88156 45.3966 9.17431C44.7102 9.84323 43.7796 10.219 42.8092 10.219C41.8388 10.219 40.9081 9.84323 40.2218 9.17431C39.8721 8.84785 39.5955 8.45437 39.4092 8.0186C39.223 7.58283 39.1313 7.11421 39.1398 6.6422C39.132 6.17165 39.2242 5.70462 39.4104 5.27044C39.5966 4.83626 39.8728 4.44433 40.2218 4.11927C40.9081 3.45035 41.8388 3.07458 42.8092 3.07458C43.7796 3.07458 44.7102 3.45035 45.3966 4.11927C45.649 4.3897 45.8846 4.67461 46.1022 4.97248L44.7662 5.44954L44.4275 5.05505C44.2153 4.84493 43.9617 4.67889 43.682 4.56695C43.4022 4.455 43.1021 4.39945 42.7998 4.40367C42.4952 4.39758 42.1923 4.45068 41.909 4.55987C41.6256 4.66906 41.3674 4.83216 41.1493 5.03967C40.9313 5.24717 40.7578 5.49492 40.6389 5.76848C40.5201 6.04204 40.4582 6.33593 40.457 6.63303C40.4457 7.08205 40.5731 7.52402 40.8227 7.90148C41.0724 8.27895 41.4327 8.57446 41.8569 8.7496C42.2811 8.92474 42.7494 8.9714 43.2012 8.88353C43.6529 8.79566 44.0671 8.57732 44.3898 8.25688L44.7285 7.80734ZM53.3468 7.10092V6.18349C53.2556 5.75135 53.0248 5.35909 52.6882 5.06422C52.3672 4.75312 51.9591 4.54149 51.5151 4.45591C51.071 4.37034 50.611 4.41466 50.1928 4.58328C49.7745 4.75191 49.4167 5.03732 49.1643 5.40365C48.9119 5.76998 48.7762 6.20088 48.7742 6.6422C48.7703 6.94438 48.8311 7.24404 48.9526 7.52206C49.0741 7.80007 49.2537 8.05033 49.4799 8.25688C49.9099 8.66323 50.4852 8.89046 51.0841 8.89046C51.6829 8.89046 52.2582 8.66323 52.6882 8.25688C53.0283 7.9572 53.2594 7.558 53.3468 7.11927V7.10092ZM53.3468 4.01835V3.58716H54.6828V10.0092H53.3468V9.20183C53.0637 9.50711 52.7182 9.75131 52.3326 9.91877C51.947 10.0862 51.5297 10.1733 51.1076 10.1743C50.6266 10.1755 50.1501 10.084 49.7055 9.90512C49.2609 9.7262 48.8569 9.46337 48.5168 9.13173C48.1767 8.8001 47.9072 8.40619 47.7237 7.97266C47.5402 7.53912 47.4464 7.07451 47.4476 6.6055C47.4464 6.1365 47.5402 5.67188 47.7237 5.23835C47.9072 4.80482 48.1767 4.41091 48.5168 4.07928C48.8569 3.74764 49.2609 3.48481 49.7055 3.30589C50.1501 3.12697 50.6266 3.03549 51.1076 3.0367C51.5316 3.04233 51.9498 3.13418 52.3354 3.30637C52.721 3.47856 53.0655 3.7273 53.3468 4.0367V4.01835ZM57.9665 0V10.0367H56.621V0H57.9665Z" fill="#2A00A2"/>
<path d="M7.95029 3.25683V3.96325C8.19917 3.68451 8.50971 3.46453 8.8585 3.31991C9.20729 3.17529 9.5852 3.1098 9.96374 3.12839C10.3485 3.10026 10.7332 3.18478 11.0684 3.3711C11.4036 3.55743 11.6742 3.83709 11.8455 4.17426C12.0806 3.83701 12.4003 3.56391 12.774 3.38088C13.1478 3.19784 13.5633 3.11093 13.9812 3.12839C14.2946 3.10435 14.6096 3.14777 14.9039 3.25558C15.1981 3.36338 15.4645 3.53294 15.6842 3.75224C16.1054 4.2721 16.3133 4.9261 16.2675 5.58711V10.0458H14.7715V5.6238C14.7958 5.29314 14.6917 4.96567 14.4799 4.70637C14.3524 4.59611 14.2033 4.51239 14.0415 4.46033C13.8797 4.40827 13.7087 4.38897 13.539 4.40362C13.2212 4.38906 12.9093 4.49045 12.664 4.68802C12.4392 4.88068 12.2759 5.13225 12.1936 5.41279V10.0642H10.6223V5.57793C10.6397 5.41754 10.6204 5.2554 10.5658 5.10315C10.5112 4.95091 10.4227 4.81235 10.3066 4.69744C10.1906 4.58252 10.0499 4.4941 9.8946 4.43854C9.73933 4.38298 9.57336 4.36165 9.40863 4.3761C9.13551 4.35709 8.86275 4.41757 8.62491 4.54986C8.38707 4.68215 8.19485 4.8803 8.07261 5.11922V10.0366H6.47314V3.25683H7.95029Z" fill="#2A00A2"/>
<path d="M6.18146 22.2385V27.7064H11.6949V22.2385H6.18146Z" fill="#FF0000"/>
<path d="M6.18146 27.7065L6.18146 39.6698H11.6949V27.7065H6.18146Z" fill="#FF0000"/>
<path d="M17.8763 28.4679H12.2688V32.6789H17.8763V28.4679Z" fill="#FF0000"/>
<path d="M12.2688 28.4679H0V32.6789H12.2688V28.4679Z" fill="#FF0000"/>
</g>
<defs>
<clipPath id="clip0">
<rect width="140" height="57" fill="white"/>
</clipPath>
</defs>
</svg>
